<?xml version="1.0" encoding="utf-8"?><svg version="1.1" id="Layer_1" xmlns="http://www.w3.org/2000/svg" xmlns:xlink="http://www.w3.org/1999/xlink" x="0px" y="0px" viewBox="0 0 122.88 82.03" style="enable-background:new 0 0 122.88 82.03" xml:space="preserve"><style type="text/css">.st0{fill-rule:evenodd;clip-rule:evenodd;}</style><g><path class="st0" d="M101.1,19.08c-0.82,0.09-1.56-0.51-1.64-1.33c-0.09-0.82,0.51-1.56,1.33-1.64c0.8-0.09,1.6-0.06,2.4,0.07 c0.78,0.13,1.56,0.37,2.34,0.71c0.76,0.33,1.1,1.2,0.78,1.96c-0.33,0.76-1.2,1.1-1.96,0.78c-0.55-0.24-1.1-0.4-1.65-0.49 C102.16,19.04,101.63,19.03,101.1,19.08L101.1,19.08z M115.43,17.02c-1.16,0.44-1.55,1.27-1.31,3.62c0.24,2.36,0.36,4.57,2.91,5.48 c0.22,0.08,0.45,0.14,0.69,0.19c-1.2,0.84-2.7,1.21-4.31,1.6c-0.73,0.18-1.47,0.36-2.27,0.6c-0.06,0.01-0.12,0.03-0.18,0.06 L80.61,40.06c0.04-1.42,0-2.75-0.15-3.92c-0.13-1.02-0.31-1.98-0.55-2.89c-0.24-0.92-0.54-1.8-0.89-2.63 c-0.32-0.76-1.2-1.12-1.96-0.8c-0.76,0.32-1.12,1.2-0.8,1.96c0.29,0.7,0.54,1.44,0.75,2.22c0.21,0.8,0.37,1.64,0.48,2.51 c0.18,1.4,0.18,3.08,0.06,4.91c-0.33,0.4-0.44,0.96-0.24,1.47c0.03,0.08,0.06,0.15,0.1,0.22c-0.48,4.95-1.68,10.79-2.7,15.77 c-0.47,2.29-0.9,4.42-1.19,6.02l0,0c-0.01,0.07-0.02,0.15-0.02,0.23c-0.03,1.32,0.03,2.48,0.2,3.49c0.18,1.1,0.48,2.03,0.9,2.78 c0.88,1.55,2.13,1.94,3.4,2.34c0.83,0.26,1.68,0.53,2.06,1.46c0.06,0.15,0.08,0.31,0.05,0.47c-0.03,0.19-0.12,0.4-0.27,0.63 c-2.4,1.55-4.8,2.45-7.03,2.67c-2.19,0.22-4.23-0.21-5.95-1.33c-2.04-1.33-3.14-2.87-3.76-4.6c-0.65-1.84-0.8-3.98-0.91-6.34 l-0.1-2.09c0-0.04,0-0.08,0-0.12c-0.22-2.8-1.08-4.6-2.35-5.76c-0.84-0.77-1.82-1.22-2.88-1.48c0.18-0.74,0.33-1.45,0.43-2.16 c0.18-1.24,0.25-2.43,0.19-3.6c-0.09-1.7-0.43-3.31-1.04-4.85c-0.6-1.52-1.47-3-2.6-4.45c-0.51-0.65-1.45-0.77-2.1-0.26 c-0.65,0.51-0.77,1.45-0.26,2.1c0.94,1.21,1.67,2.43,2.17,3.71c0.37,0.94,0.62,1.91,0.75,2.9c-4.52,2.23-7.53,3.49-10.63,4.3 c-0.64,0.17-1.29,0.31-1.96,0.45c-0.21,0-0.41,0.04-0.61,0.12c-1.71,0.31-3.59,0.55-5.86,0.78c1.43-1.71,2.58-3.59,3.44-5.65 c1.79-4.31,2.29-9.37,1.4-15.24c-0.12-0.82-0.89-1.38-1.7-1.26c-0.82,0.12-1.38,0.89-1.26,1.7c0.81,5.32,0.38,9.85-1.2,13.65 c-1.2,2.88-3.06,5.36-5.56,7.47c-0.05,0.04-0.09,0.07-0.14,0.11c-0.72,0.6-1.49,1.17-2.31,1.71c-0.12,0.07-0.23,0.16-0.33,0.26 c-1.23,1.31-2.31,2.69-3.23,4.16c-0.9,1.45-1.64,2.98-2.2,4.62c-0.11,0.26-0.15,0.56-0.09,0.86c0.36,1.83,1.1,3.1,2.15,3.88 c1.03,0.77,2.29,1.03,3.72,0.88c1.26,0.22,2.07,0.88,2.38,1.64c0.12,0.29,0.16,0.6,0.12,0.91c-0.04,0.29-0.15,0.59-0.35,0.85 c-0.45,0.59-1.29,1.05-2.59,1.2h-3.18c-0.07,0-0.13,0-0.19,0.01H14.08L7.02,64.93c-0.14-1.3-0.04-2.35,0.26-3.21 c0.29-0.86,0.79-1.55,1.43-2.12l0,0c0.18-0.17,0.33-0.38,0.41-0.63c0.71-2.14,0.99-4.78,0.83-7.92c-0.15-3.02-0.71-6.54-1.66-10.53 c-0.03-0.18-0.1-0.36-0.21-0.53c-0.44-0.7-1.36-0.91-2.06-0.47c-1.23,0.77-2.04,1.06-2.4,0.84c-0.43-0.27-0.64-1.27-0.63-3.05 l0-0.01c0.18-4.42,1.2-8.16,2.91-11.32c1.71-3.15,4.12-5.75,7.09-7.89v0c0.04-0.03,0.08-0.06,0.12-0.09 c3.87-3.42,8.86-6,14.87-7.78c6.08-1.8,13.2-2.78,21.29-3.01c0.25,0.01,0.51-0.05,0.75-0.18c4.59-2.49,8.94-4.27,12.58-4 c3.39,0.25,6.28,2.44,8.34,7.82c0.29,0.77,1.16,1.16,1.93,0.87c0.77-0.29,1.16-1.16,0.87-1.93c-0.24-0.64-0.5-1.24-0.77-1.8 l15.8,1.51c0.76,0.11,1.5-0.38,1.67-1.15c0.43-1.9,1.56-3.26,2.89-3.95c0.69-0.36,1.43-0.54,2.14-0.52 c0.68,0.02,1.36,0.22,1.95,0.63c1.04,0.71,1.85,2.08,2.12,4.23h0c0.07,0.58,0.48,1.09,1.08,1.26c3.44,0.99,6.61,2.15,9.38,3.55 C112.04,14.55,113.86,15.71,115.43,17.02L115.43,17.02z M71.43,5.23c0.29-0.23,0.66-0.35,1.06-0.31L87.92,6.4 c0.81-2.16,2.31-3.76,4.04-4.66c1.13-0.59,2.37-0.89,3.6-0.86c1.25,0.03,2.49,0.4,3.56,1.14c1.52,1.04,2.73,2.8,3.24,5.35 c3.25,0.98,6.28,2.12,8.99,3.49c2.97,1.5,5.56,3.28,7.67,5.4c1.85,1.38,2.98,2.86,3.51,4.38c0.61,1.77,0.4,3.51-0.5,5.18 c-1.9,3.54-4.73,4.23-7.91,5c-0.7,0.17-1.43,0.35-2.12,0.55L80.4,43.33c-0.5,5.15-1.71,11.09-2.75,16.15 c-0.43,2.09-0.82,4.02-1.15,5.85c-0.02,1.08,0.04,2.02,0.16,2.82c0.12,0.74,0.3,1.34,0.55,1.77c0.3,0.52,0.99,0.74,1.69,0.96 c1.49,0.47,3.03,0.95,3.94,3.19c0.28,0.68,0.35,1.4,0.21,2.15c-0.12,0.66-0.41,1.32-0.88,1.98c-0.11,0.17-0.25,0.31-0.43,0.43 c-2.89,1.91-5.84,3.03-8.64,3.31c-2.87,0.29-5.56-0.3-7.87-1.8c-2.68-1.75-4.13-3.79-4.95-6.11c-0.78-2.21-0.95-4.59-1.08-7.19 l-0.1-2.08l0-0.05c-0.15-1.94-0.65-3.1-1.38-3.77c-0.7-0.64-1.7-0.89-2.84-0.97c-0.12-0.01-0.25-0.03-0.37-0.07 c-0.79-0.25-1.23-1.08-0.98-1.87c0.37-1.18,0.63-2.3,0.79-3.37c0.03-0.23,0.06-0.46,0.09-0.69c-3.99,1.92-6.86,3.08-9.9,3.86 c-0.67,0.17-1.34,0.33-2.03,0.47l-4.88,5.14c-0.28,0.34-0.5,0.59-0.7,0.83c-1.22,1.4-2.19,2.53-2.04,4.5 c0.03,0.34,0.1,0.66,0.21,0.95c0.02,0.06,0.05,0.12,0.08,0.18c2.88-0.22,5.13,0.91,6.4,2.5c0.7,0.87,1.11,1.88,1.2,2.9 c0.09,1.07-0.17,2.14-0.83,3.09c-1.17,1.66-3.59,2.85-7.53,2.64v0h-6.73c-0.6,0.05-1.24,0.06-1.94,0.01H13.18v0 c-0.53,0-1.05-0.29-1.32-0.79L4.25,66.1l0,0c-0.08-0.16-0.14-0.33-0.17-0.51c-0.26-1.92-0.1-3.5,0.35-4.83 c0.43-1.24,1.1-2.25,1.95-3.09c0.51-1.73,0.7-3.89,0.57-6.49c-0.12-2.39-0.51-5.13-1.18-8.2c-1.48,0.57-2.74,0.55-3.77-0.11 c-1.35-0.86-2.03-2.7-2.01-5.6c0-0.03,0-0.07,0-0.1c0.2-4.92,1.34-9.09,3.26-12.63c1.92-3.53,4.61-6.44,7.92-8.85 c4.21-3.7,9.55-6.46,15.95-8.36c6.25-1.85,13.53-2.87,21.78-3.12c4.92-2.64,9.67-4.5,13.9-4.19C66.15,0.28,69.09,1.81,71.43,5.23 L71.43,5.23z M31.93,59.63c-0.69,0.56-1.42,1.09-2.19,1.6c-1.05,1.13-1.97,2.31-2.75,3.57c-0.73,1.18-1.34,2.41-1.81,3.7 c0.21,0.84,0.52,1.39,0.92,1.68c0.41,0.3,0.99,0.39,1.71,0.3c0.15-0.02,0.3-0.03,0.45-0.01c2.53,0.35,4.21,1.8,4.91,3.51 c0.32,0.77,0.43,1.59,0.34,2.39c-0.07,0.58-0.25,1.16-0.54,1.7h1.43v0c0.03,0,0.06,0,0.09,0c2.79,0.16,4.36-0.47,4.99-1.37 c0.24-0.33,0.33-0.72,0.29-1.11c-0.04-0.44-0.23-0.89-0.55-1.28c-0.81-1-2.38-1.68-4.48-1.32c-0.55,0.13-1.15-0.05-1.52-0.52 c-0.4-0.5-0.72-1.05-0.94-1.62c-0.23-0.58-0.36-1.18-0.41-1.82c-0.25-3.2,1.09-4.75,2.77-6.68c0.24-0.27,0.49-0.56,0.67-0.78 c0.04-0.05,0.08-0.1,0.12-0.14l2.23-2.34C35.98,59.27,34.11,59.44,31.93,59.63L31.93,59.63z"/></g></svg>