<?xml version="1.0" encoding="utf-8"?><svg version="1.1" id="Layer_1" xmlns="http://www.w3.org/2000/svg" xmlns:xlink="http://www.w3.org/1999/xlink" x="0px" y="0px" viewBox="0 0 122.88 115.95" style="enable-background:new 0 0 122.88 115.95" xml:space="preserve"><style type="text/css">.st0{fill-rule:evenodd;clip-rule:evenodd;}</style><g><path class="st0" d="M61.64,47.53c2.96,0,5.37,6.76,5.37,15.11c0,8.34-2.4,15.11-5.37,15.11s-5.37-6.76-5.37-15.11 C56.28,54.29,58.68,47.53,61.64,47.53L61.64,47.53z M57.1,41.94c-0.14-0.23-0.23-0.5-0.27-0.78c-0.97-6.51-2.93-12.82-5.61-18.46 c-2.48-5.22-5.57-9.85-9.04-13.54c-0.7,0.39-1.51,0.62-2.37,0.62c-2.7,0-4.89-2.19-4.89-4.89C34.91,2.19,37.1,0,39.8,0 c2.7,0,4.89,2.19,4.89,4.89c0,0.22-0.02,0.44-0.04,0.65c4.05,4.13,7.63,9.39,10.45,15.33c2.74,5.76,4.78,12.17,5.85,18.8 c0.37-0.05,0.74-0.06,1.11-0.02c0.13,0.01,0.26,0.03,0.38,0.06c1.07-6.64,3.11-13.07,5.86-18.84c2.82-5.94,6.4-11.2,10.45-15.33 c-0.03-0.21-0.04-0.43-0.04-0.65C78.71,2.19,80.9,0,83.6,0c2.7,0,4.89,2.19,4.89,4.89c0,2.7-2.19,4.89-4.89,4.89 c-0.86,0-1.67-0.22-2.37-0.62c-3.47,3.69-6.56,8.32-9.04,13.54c-2.68,5.64-4.65,11.95-5.61,18.46c-0.06,0.39-0.22,0.75-0.45,1.04 c0.66,0.8,1.3,1.77,1.91,2.89c3.49-7.49,8.3-13.93,14.29-19.44c6.73-6.18,14.94-11.17,24.45-15.12c0.04-0.02,0.08-0.03,0.12-0.04 l0,0c2.98-0.93,5.6-1.39,7.82-1.24c2.43,0.17,4.4,1.06,5.85,2.86c2.08,2.57,2.5,7.22,2.28,11.95c-0.22,4.54-1.01,9.12-1.49,11.84 c-1.01,5.69-2.23,11.57-4.57,16.84c-2.39,5.37-5.92,10.04-11.53,13.1c-1.66,0.91-3.4,1.63-5.22,2.18 c-0.63,0.19-1.28,0.36-1.94,0.51l0.08,0.05c5.09,3.17,10.42,6.5,11.15,12.86c0.19,1.64-0.16,4.43-0.71,7.37 c-0.75,3.99-1.9,8.35-2.6,10.4c-0.93,2.74-2.48,6.89-4.68,10.31c-2.37,3.69-5.5,6.57-9.46,6.26c-5.73-0.44-10.61-4.88-14.58-10.77 c-4.88-7.25-8.43-16.78-10.37-23.42c-1.51,2.16-3.18,3.32-5.04,3.34c-1.92,0.02-3.86-1.2-5.82-3.83c-1.34,5.21-4.11,13-7.76,19.83 c-4.66,8.73-10.82,15.96-17.57,14.93c-0.04-0.01-0.08-0.01-0.12-0.02l-0.01,0l-0.01,0l0,0c-0.79-0.14-1.57-0.38-2.32-0.73 c-4.78-2.21-8.74-8.64-11.27-15.68c-2.5-6.93-3.65-14.53-2.86-19.2c0.17-0.97,0.41-1.83,0.75-2.56c0.87-1.88,2.16-3.51,3.66-4.93 c1.45-1.38,3.11-2.56,4.77-3.56c0.55-0.34,1.11-0.65,1.68-0.95c-0.72-0.11-1.44-0.25-2.17-0.42c-2.68-0.61-4.88-1.32-6.85-2.45 c-2-1.15-3.74-2.71-5.46-5.01c-3.19-4.27-5.27-8.88-6.72-13.71c-1.43-4.76-2.24-9.73-2.92-14.79l0,0l-0.09-0.7 c-0.84-6.22-2.1-15.54,3.04-20.44c3.24-3.09,9.14-1.95,15.47,0.96c9.43,4.33,20.14,12.65,23.36,16c2.63,2.73,5.06,5.77,7.26,9.15 c1.71,2.63,3.28,5.46,4.7,8.52C55.45,43.92,56.28,42.8,57.1,41.94L57.1,41.94z M26.46,46.83c0.47,0.36,0.56,1.03,0.2,1.5 c-0.36,0.47-1.03,0.56-1.5,0.2c-2.01-1.54-4.09-2.99-6.22-4.33c-2.14-1.35-4.35-2.6-6.63-3.75c-0.53-0.27-0.74-0.91-0.47-1.44 c0.27-0.53,0.91-0.74,1.44-0.47c2.34,1.18,4.61,2.46,6.81,3.85C22.28,43.77,24.41,45.25,26.46,46.83L26.46,46.83z M94.49,65.98 c0.2,0.02,0.4,0.08,0.57,0.17c1.42-0.19,2.8-0.48,4.13-0.88c1.64-0.49,3.2-1.14,4.67-1.95c4.97-2.72,8.13-6.91,10.29-11.76 c2.2-4.95,3.38-10.65,4.36-16.16c0.47-2.66,1.25-7.16,1.46-11.48c0.2-4.13-0.1-8.1-1.64-10.01c-0.91-1.13-2.2-1.69-3.83-1.8 c-1.83-0.13-4.08,0.28-6.7,1.09c-9.17,3.82-17.09,8.62-23.55,14.56C77.8,33.67,72.79,40.73,69.4,49.08l0,0 c-0.14,0.34-0.4,0.63-0.77,0.78c-0.73,0.31-1.56-0.03-1.87-0.76c-1.68-4-3.35-6.42-5.01-6.6c-1.61-0.18-3.57,1.81-5.97,6.6 c-0.14,0.34-0.41,0.62-0.77,0.77c-0.73,0.3-1.57-0.04-1.87-0.77c-1.65-3.95-3.53-7.51-5.63-10.74c-2.1-3.22-4.42-6.12-6.92-8.72 C37.5,26.42,27.2,18.43,18.1,14.24c-5.33-2.45-10.12-3.58-12.32-1.49C1.7,16.65,2.85,25.11,3.61,30.74l0.09,0.7h0l0,0.01 c0.66,4.91,1.45,9.74,2.83,14.35c1.36,4.54,3.3,8.86,6.26,12.82c1.47,1.96,2.93,3.28,4.6,4.24c1.7,0.98,3.65,1.6,6.06,2.15 c1.2,0.27,2.41,0.47,3.62,0.6c0.73,0.08,1.46,0.13,2.18,0.16c0.07-0.02,0.15-0.03,0.23-0.04l23.4-2.67 c0.96-0.11,1.83,0.58,1.93,1.54c0.11,0.96-0.58,1.83-1.54,1.93l-23.4,2.67c-0.1,0.01-0.2,0.01-0.29,0.01 c-0.57,0.24-1.14,0.49-1.7,0.75c-1.08,0.51-2.12,1.06-3.09,1.65c-1.49,0.9-2.97,1.96-4.27,3.19c-1.26,1.19-2.33,2.54-3.03,4.06 c-0.23,0.5-0.41,1.12-0.53,1.84c-0.72,4.23,0.38,11.26,2.72,17.76c2.3,6.4,5.77,12.18,9.78,14.04c0.52,0.24,1.06,0.41,1.59,0.5l0,0 l0.01,0c0.03,0,0.06,0.01,0.09,0.01c5.23,0.8,10.48-5.68,14.62-13.44c4.33-8.1,7.37-17.55,8.15-22.08 c0.01-0.03,0.02-0.13,0.05-0.32l0,0c0.06-0.42,0.32-0.81,0.72-1.04c0.69-0.38,1.56-0.14,1.94,0.55c2.05,3.69,3.77,5.39,5.21,5.38 c1.37-0.02,2.77-1.69,4.21-4.76c0.17-0.41,0.52-0.74,0.98-0.85c0.77-0.19,1.54,0.28,1.73,1.05c1.53,6.2,5.31,17.61,10.89,25.9 c3.52,5.22,7.72,9.16,12.41,9.52c2.67,0.2,4.99-2.05,6.84-4.95c2.03-3.17,3.5-7.08,4.37-9.67c0.66-1.96,1.77-6.16,2.5-10.02 c0.51-2.7,0.83-5.19,0.68-6.52c-0.58-4.98-5.31-7.94-9.82-10.75c-0.81-0.5-1.61-1.01-2.42-1.53c-0.04,0-0.09-0.01-0.13-0.01 l-23.4-2.67c-0.96-0.11-1.65-0.98-1.54-1.93c0.11-0.96,0.98-1.65,1.93-1.54L94.49,65.98L94.49,65.98z M79.42,47.27 c-0.36,0.47-1.03,0.56-1.5,0.2c-0.47-0.36-0.56-1.03-0.2-1.5c4.49-5.87,9.37-11.19,14.71-15.84c5.36-4.66,11.19-8.66,17.58-11.88 c0.53-0.27,1.17-0.05,1.44,0.47c0.27,0.53,0.05,1.17-0.47,1.44c-6.22,3.13-11.9,7.03-17.13,11.59 C88.6,36.31,83.82,41.52,79.42,47.27L79.42,47.27z M98.13,48.53c-0.47,0.36-1.14,0.27-1.5-0.2c-0.36-0.47-0.27-1.14,0.2-1.5 c2.05-1.57,4.18-3.06,6.38-4.44c2.2-1.39,4.47-2.67,6.81-3.85c0.53-0.27,1.17-0.05,1.44,0.47c0.27,0.53,0.05,1.17-0.47,1.44 c-2.28,1.15-4.49,2.4-6.63,3.75C102.21,45.54,100.14,46.99,98.13,48.53L98.13,48.53z M88.33,47.09c-0.41,0.42-1.09,0.43-1.52,0.01 c-0.42-0.41-0.43-1.09-0.01-1.52c3.43-3.5,7.05-6.7,10.9-9.57c3.86-2.88,7.95-5.43,12.31-7.63c0.53-0.27,1.17-0.05,1.44,0.47 c0.27,0.53,0.05,1.17-0.47,1.44c-4.23,2.13-8.22,4.62-11.99,7.43C95.22,40.56,91.67,43.68,88.33,47.09L88.33,47.09z M45.57,45.97 c0.36,0.47,0.27,1.14-0.2,1.5c-0.47,0.36-1.14,0.27-1.5-0.2c-4.4-5.75-9.18-10.96-14.42-15.52c-5.23-4.55-10.92-8.45-17.13-11.59 c-0.53-0.27-0.74-0.91-0.47-1.44c0.27-0.53,0.91-0.74,1.44-0.47c6.39,3.22,12.22,7.22,17.58,11.88 C36.2,34.78,41.08,40.1,45.57,45.97L45.57,45.97z M36.48,45.59c0.41,0.42,0.41,1.1-0.01,1.52c-0.42,0.42-1.1,0.41-1.52-0.01 c-3.34-3.41-6.89-6.54-10.66-9.35c-3.77-2.81-7.76-5.3-11.99-7.43c-0.53-0.27-0.74-0.91-0.47-1.44c0.27-0.53,0.91-0.74,1.44-0.47 c4.36,2.2,8.45,4.75,12.31,7.63C29.43,38.89,33.06,42.09,36.48,45.59L36.48,45.59z"/></g></svg>