<?xml version="1.0" encoding="utf-8"?><svg version="1.1" id="Layer_1" xmlns="http://www.w3.org/2000/svg" xmlns:xlink="http://www.w3.org/1999/xlink" x="0px" y="0px" viewBox="0 0 119.16 122.88" style="enable-background:new 0 0 119.16 122.88" xml:space="preserve"><style type="text/css">.st0{fill-rule:evenodd;clip-rule:evenodd;}</style><g><path class="st0" d="M70,44.25c3.45,0,6.25,2.8,6.25,6.25s-2.8,6.25-6.25,6.25c-3.45,0-6.25-2.8-6.25-6.25S66.55,44.25,70,44.25 L70,44.25z M24.5,50.7c-0.11-1.72-0.13-3.39-0.07-5.01c-3.33,0.4-6.29-0.22-8.7-2.38c2.51-3.8,5.89-6.06,10.16-6.74 c0.6-2.03,1.38-3.96,2.33-5.78c-4.88,0.68-9.29,2.19-13.23,4.52c-4.37,2.59-8.18,6.19-11.43,10.81c2.88,2.31,6.08,3.75,9.53,4.46 C16.62,51.31,20.44,51.3,24.5,50.7L24.5,50.7z M90.65,38.59c-0.82-3.22-2.11-6.14-3.84-8.8c-0.13-0.21-0.21-0.43-0.24-0.66 c-3.78-4.85-9.94-8-16.94-9.49c-9.39-1.99-20.24-0.98-28.97,2.95c-2.07,0.93-3.9,2.25-5.49,3.88c-1.62,1.65-3.01,3.62-4.2,5.85 l-0.02,0.05c-3.69,7.14-4.06,14.81-2.54,22.8c1.49,7.83,4.8,16,8.6,24.27c6.02-1.87,14.11-2.95,22.59-3.06 c7.85-0.11,16.07,0.6,23.31,2.25c3.99-8.62,6.85-16.84,8.02-24.54C91.74,48.64,91.72,43.45,90.65,38.59L90.65,38.59z M89.17,27.5 c6.16,0.56,11.68,2.28,16.55,5.16c5.12,3.03,9.52,7.33,13.19,12.88c0.42,0.64,0.3,1.48-0.25,1.98l0,0 c-3.56,3.2-7.58,5.13-11.97,6.04c-3.95,0.82-8.18,0.81-12.62,0.14c-0.04,0.28-0.08,0.56-0.12,0.84c-1.21,7.98-4.15,16.45-8.25,25.3 c0.03,0.07,0.05,0.13,0.07,0.2c0.65,0.87,1.18,1.83,1.58,2.86c0.53,1.36,0.82,2.83,0.82,4.36v9.88c0,2.82-0.98,5.42-2.62,7.49 c-1.01,1.28-2.27,2.35-3.71,3.14c0.01,0.07,0.03,0.14,0.04,0.21c0.09,0.62,0.08,1.47-0.1,2.45c-0.17,0.93-0.51,1.99-1.06,3.08 c-2.19,4.3-7.93,9.38-21.44,9.37c-1.12,0-2.17-0.04-3.13-0.1c-6.35-0.43-11-2.17-14.08-4.73c-3.22-2.67-4.74-6.19-4.74-10.04 c0-0.36,0.01-0.69,0.03-0.98c0.01-0.13,0.03-0.25,0.07-0.36c-0.91-0.72-1.72-1.57-2.4-2.51c-1.42-1.99-2.25-4.41-2.25-7.01v-9.88 c0-1.29,0.21-2.54,0.59-3.72c0.27-0.83,0.63-1.63,1.06-2.37c-3.97-8.61-7.46-17.15-9.03-25.44c-0.13-0.67-0.24-1.35-0.35-2.02 c-4.42,0.66-8.63,0.67-12.56-0.15c-4.39-0.91-8.41-2.84-11.97-6.04l0,0c-0.55-0.5-0.68-1.34-0.25-1.98 C3.92,40,8.32,35.7,13.44,32.67c4.97-2.94,10.61-4.67,16.92-5.2c0.8-1.13,1.67-2.17,2.6-3.13c0.57-0.58,1.17-1.13,1.79-1.64 c-5.4-5.55-7.93-12.95-8.22-21.81c0.82-0.96,1.56-1.03,2.58-0.76c5.27,1.39,4.59,10.96,14.13,18.15 c8.52-2.91,18.35-3.47,27.01-1.64c1.94,0.41,3.82,0.94,5.62,1.6c9.48-7.18,8.81-16.72,14.07-18.11c1.02-0.27,1.76-0.2,2.58,0.76 c-0.29,8.86-2.83,16.26-8.23,21.81C86.16,24.1,87.8,25.7,89.17,27.5L89.17,27.5z M94.73,45.73c0.06,1.61,0.04,3.26-0.07,4.98 c4.05,0.6,7.87,0.61,11.4-0.12c3.45-0.72,6.65-2.15,9.53-4.46c-3.25-4.62-7.06-8.23-11.43-10.81c-3.85-2.28-8.16-3.77-12.92-4.47 c0.05,0.1,0.1,0.21,0.15,0.31c0.02,0.04,0.03,0.08,0.05,0.11c0.77,1.75,1.39,3.54,1.87,5.37c4.11,0.75,7.38,2.99,9.83,6.69 C100.81,45.41,97.94,46.05,94.73,45.73L94.73,45.73z M82.84,81.3c-7.16-1.69-15.37-2.41-23.23-2.3c-8.36,0.12-16.3,1.18-22.1,3.03 c-0.53,0.75-0.96,1.58-1.24,2.46c-0.28,0.87-0.43,1.8-0.43,2.77v9.88c0,1.95,0.62,3.76,1.68,5.24c1.08,1.51,2.61,2.68,4.38,3.31 c0.62,0.19,1.08,0.78,1.07,1.46c0,0.84-0.69,1.52-1.53,1.52l-1.04-0.01c0.16,2.68,1.33,5.13,3.62,7.02 c2.61,2.16,6.67,3.65,12.33,4.03c0.97,0.07,1.95,0.1,2.93,0.1c11.99,0.01,16.91-4.17,18.71-7.7c0.42-0.82,0.66-1.59,0.79-2.25 c0.06-0.34,0.09-0.64,0.1-0.9l-0.27,0c-0.74,0.06-1.43-0.43-1.61-1.17c-0.19-0.82,0.31-1.65,1.14-1.84 c2.02-0.48,3.78-1.64,5.03-3.21c1.22-1.54,1.95-3.49,1.95-5.6v-9.88c0-1.15-0.21-2.25-0.6-3.25C84.1,83.02,83.54,82.1,82.84,81.3 L82.84,81.3z M68.69,87.8L68.69,87.8c2.08,0,3.78,1.7,3.78,3.78v6.14c0,2.08-1.7,3.78-3.78,3.78h0c-2.08,0-3.78-1.7-3.78-3.78 v-6.14C64.91,89.5,66.61,87.8,68.69,87.8L68.69,87.8z M50.45,87.8L50.45,87.8c2.08,0,3.78,1.7,3.78,3.78v6.14 c0,2.08-1.7,3.78-3.78,3.78h0c-2.08,0-3.78-1.7-3.78-3.78v-6.14C46.67,89.5,48.37,87.8,50.45,87.8L50.45,87.8z M49.47,44.25 c3.45,0,6.25,2.8,6.25,6.25s-2.8,6.25-6.25,6.25c-3.45,0-6.25-2.8-6.25-6.25S46.02,44.25,49.47,44.25L49.47,44.25z M49.47,47.28 c1.78,0,3.23,1.45,3.23,3.23c0,1.78-1.45,3.23-3.23,3.23c-1.78,0-3.23-1.45-3.23-3.23C46.24,48.72,47.69,47.28,49.47,47.28 L49.47,47.28z M70,47.28c1.78,0,3.23,1.45,3.23,3.23c0,1.78-1.45,3.23-3.23,3.23c-1.78,0-3.23-1.45-3.23-3.23 C66.77,48.72,68.22,47.28,70,47.28L70,47.28z"/></g></svg>