<?xml version="1.0" encoding="utf-8"?><svg version="1.1" id="Layer_1" xmlns="http://www.w3.org/2000/svg" xmlns:xlink="http://www.w3.org/1999/xlink" x="0px" y="0px" viewBox="0 0 122.88 85.06" style="enable-background:new 0 0 122.88 85.06" xml:space="preserve"><g><path d="M67.49,34.65c0.78,0.16,1.28,0.91,1.12,1.69c-0.16,0.78-0.92,1.28-1.69,1.12c-2.18-0.45-4.08-1.18-5.72-2.14 c-3.51-2.06-5.78-5.15-6.98-8.65c-1.18-3.44-1.31-7.28-0.56-10.95c0.4-1.96,1.05-3.87,1.93-5.64l-5.97,0.06 c-0.7,0.01-1.44,0.01-2.17,0.02C32.36,10.26,18.9,10.37,11.76,25.9c-0.02,0.18-0.08,0.36-0.18,0.52c-0.1,0.18-0.2,0.37-0.31,0.56 c-0.02,0.05-0.05,0.1-0.08,0.15c-2.43,4.77-3.9,12.79-5.6,22.01c-0.49,2.66-1,5.41-1.47,7.82c-0.02,0.1-0.16,0.77-0.33,1.6 c-0.57,2.8-1.06,5.23-0.92,7.46c0.15-0.21,0.3-0.43,0.45-0.67c1.86-3.02,3.11-7.68,4.12-11.41l0.21-0.78l0.14-0.53 c1.24-4.58,2.27-8.4,3.9-9.09c1.23-0.52,2.26,0,3.07,1.85c0.15,0.23,0.24,0.51,0.23,0.81c-0.07,3.03-0.49,7.6-0.95,12.56 c-0.6,6.48-1.26,13.65-1.28,18.85c0.05,1.2,0.2,2.63,0.69,3.6c0.33,0.65,0.9,1.08,1.89,0.91c0.08-0.02,0.16-0.03,0.25-0.03 l8.51-0.27l0.04,0c0.94-0.07,1.62-0.25,2.05-0.53c0.28-0.18,0.43-0.43,0.48-0.74c0.18-1.26-0.54-2.51-1.21-3.68 c-0.84-1.46-1.63-2.82-1.34-4.51c0.29-1.7,4.72-6.72,7.29-9.64c0.62-0.71,1.13-1.29,1.4-1.61l0.01-0.01 c2.36-3.04,3.71-6.33,4.11-9.87c0.4-3.58-0.16-7.45-1.63-11.57c-0.26-0.75,0.13-1.57,0.88-1.83c0.75-0.26,1.57,0.13,1.83,0.88 c1.61,4.53,2.23,8.81,1.78,12.84c-0.37,3.32-1.46,6.44-3.31,9.36c3.87,0.39,7.59,0.5,11.04,0.17c3.61-0.35,6.93-1.18,9.85-2.68 c-0.9-2.08-1.78-4.33-2.63-6.78c-0.26-0.75,0.14-1.56,0.89-1.82c0.75-0.26,1.56,0.14,1.82,0.89c1.55,4.49,3.24,8.32,5,11.7 c1.75,3.36,3.56,6.27,5.36,8.94l0,0c0.19,0.28,0.28,0.63,0.23,1c-0.06,0.42-0.08,0.58-0.11,0.75c-0.38,2.56-1.18,7.87,0.75,8.32 l8.66,0.15c0.05,0,0.1,0,0.15,0.01c1.54,0.15,2.31-0.32,2.49-1.25c0.29-1.47-0.24-3.81-1.34-6.76l0,0 c-0.04-0.11-0.07-0.24-0.08-0.36c-0.27-2.94-0.72-5.72-1.29-8.41c-0.56-2.67-1.25-5.28-2-7.92c-0.49-1.72-0.66-3.49-0.83-5.3 c-0.37-3.85-0.15-3.95,0.4-8.02c0.11-0.78,0.83-1.34,1.61-1.23c0.78,0.11,1.34,0.83,1.23,1.61l-0.41,3.07 c1.35-0.15,2.67-0.4,3.98-0.74c1.53-0.4,3.04-0.94,4.52-1.63c-0.36-1.68-0.68-3.45-0.98-5.29c-0.12-0.78,0.41-1.52,1.19-1.64 c0.78-0.12,1.52,0.41,1.64,1.19c0.43,2.69,0.93,5.22,1.51,7.58c0.58,2.34,1.23,4.49,1.97,6.45c1.03,2.72,2.52,5.14,4.34,7.07 c1.75,1.86,3.8,3.26,6.03,4.01c2.67,0.91,5.16,0.98,7.38,0.42c2.45-0.62,4.59-2.01,6.33-3.88c2.19-2.36,3.38-4.76,4.03-7.32 c0.67-2.64,0.78-5.49,0.79-8.64c0-0.26,0-0.53,0-0.8h-2.61c-0.1,0.34-0.19,0.69-0.29,1.05c-1.51,5.48-3.6,13.04-10.74,12.27 c-1.97-0.21-3.7-1.38-4.73-3.76c-0.78-1.79-1.14-4.31-0.84-7.67l0.11-1.16c0.42-4.62,0.83-9.07,0.63-13.57 c-0.07-1.6-0.23-3.2-0.48-4.78c-0.25-1.58-0.6-3.15-1.05-4.71l0,0c-0.59-1.94-1.42-3.56-2.44-4.92c-1.02-1.35-2.24-2.44-3.61-3.33 c-1.56-1.01-3.33-1.76-5.26-2.34c-1.96-0.59-4.06-0.99-6.24-1.28c-0.42-0.04-0.82-0.26-1.07-0.64c-1.16-1.75-2.71-3.18-4.47-4.22 c-2-1.18-4.28-1.84-6.59-1.85c-2.3-0.01-4.63,0.63-6.76,2.05c-1.76,1.17-3.39,2.88-4.75,5.2c-1.11,1.88-1.9,3.99-2.35,6.16 c-0.65,3.19-0.54,6.51,0.47,9.46c0.99,2.88,2.84,5.41,5.71,7.1C64.02,33.65,65.63,34.27,67.49,34.65L67.49,34.65z M77.17,49.88 c0.05,0.46,0.09,0.94,0.14,1.41c0.16,1.65,0.31,3.27,0.74,4.78c0.76,2.66,1.46,5.32,2.04,8.12c0.57,2.71,1.02,5.52,1.31,8.53 c1.23,3.35,1.79,6.14,1.4,8.14c-0.5,2.54-2.22,3.86-5.53,3.56l-8.79-0.15c-0.07,0-0.14-0.01-0.21-0.02l0,0 c-4.81-0.81-3.71-8.1-3.19-11.59l0.03-0.18c-1.76-2.63-3.52-5.48-5.22-8.76c-0.45-0.86-0.9-1.76-1.34-2.69 c-3.22,1.63-6.85,2.54-10.77,2.92c-4.16,0.4-8.65,0.2-13.3-0.36c-0.26,0.3-0.57,0.66-0.92,1.05c-2.37,2.7-6.46,7.33-6.61,8.23 c-0.12,0.68,0.42,1.61,0.99,2.59c0.91,1.58,1.9,3.28,1.57,5.52c-0.17,1.16-0.75,2.08-1.76,2.73c-0.84,0.55-1.96,0.88-3.38,0.99 c-0.06,0-0.12,0.01-0.17,0l-8.41,0.26c-2.53,0.41-4.01-0.73-4.88-2.45c-0.73-1.44-0.93-3.27-0.99-4.78c0-0.04,0-0.09,0-0.13 c0.02-5.34,0.69-12.57,1.29-19.1c0.36-3.95,0.7-7.64,0.86-10.47c-0.41,1.32-0.92,3.23-1.49,5.32l-0.14,0.53l-0.21,0.78 c-1.05,3.91-2.36,8.77-4.45,12.18c-0.45,0.73-0.93,1.37-1.45,1.89c-0.56,0.56-1.17,0.99-1.84,1.26c-0.05,0.02-0.1,0.04-0.15,0.05 c-0.76,0.23-1.56-0.19-1.79-0.95c-1.09-3.53-0.4-6.95,0.45-11.11c0.04-0.21,0.08-0.4,0.31-1.59c0.57-2.92,1.03-5.4,1.47-7.79 c1.75-9.51,3.27-17.78,5.92-22.92C16.47,7.52,31.05,7.41,47.44,7.28c0.7-0.01,1.41-0.01,2.15-0.02l7.7-0.08 c1.39-1.99,2.99-3.53,4.69-4.67c2.62-1.75,5.51-2.53,8.35-2.52c2.83,0.01,5.61,0.81,8.04,2.24c1.95,1.15,3.68,2.7,5.04,4.57 c2.14,0.31,4.19,0.72,6.12,1.29c2.17,0.65,4.19,1.52,6,2.69c1.65,1.07,3.11,2.38,4.34,4.01c1.22,1.61,2.2,3.54,2.89,5.83l0,0.02 l0,0c0.49,1.68,0.86,3.36,1.13,5.06c0.27,1.7,0.44,3.4,0.51,5.1c0.21,4.67-0.21,9.22-0.64,13.95l-0.11,1.16 c-0.26,2.84,0.01,4.89,0.61,6.27c0.57,1.31,1.44,1.94,2.41,2.05c4.72,0.51,6.43-5.69,7.67-10.18c0.21-0.77,0.41-1.5,0.61-2.14 c0.19-0.62,0.76-1.01,1.37-1.01v0h5.05c0.79,0,1.42,0.63,1.44,1.41c0.02,0.34,0.04,0.72,0.05,1.12c0.01,0.38,0.01,0.77,0.01,1.15 c-0.02,3.36-0.14,6.42-0.87,9.32c-0.76,2.99-2.15,5.8-4.71,8.57c-2.11,2.27-4.73,3.96-7.73,4.72c-2.73,0.69-5.77,0.61-9-0.49 c-2.68-0.91-5.13-2.57-7.19-4.76c-2.07-2.2-3.77-4.95-4.93-8.02c-0.75-1.97-1.41-4.13-1.99-6.46c-1.47,0.65-2.96,1.17-4.47,1.56 C80.4,49.44,78.8,49.72,77.17,49.88L77.17,49.88z M74.76,11.1c0.78,0.1,1.34,0.82,1.24,1.6c-0.1,0.78-0.82,1.34-1.6,1.24 c-1.19-0.15-2.21,0.26-2.99,1c-0.63,0.6-1.1,1.4-1.39,2.3c-0.29,0.91-0.38,1.9-0.24,2.86c0.21,1.39,0.94,2.7,2.32,3.52 c0.68,0.4,0.9,1.28,0.5,1.96c-0.4,0.68-1.28,0.9-1.96,0.5c-2.2-1.31-3.37-3.37-3.7-5.55c-0.21-1.39-0.08-2.84,0.35-4.16 c0.43-1.34,1.17-2.57,2.14-3.5C70.8,11.57,72.62,10.83,74.76,11.1L74.76,11.1z M84.07,25.9c-0.77-0.19-1.24-0.97-1.05-1.74 c0.19-0.77,0.97-1.24,1.74-1.05c1,0.25,1.96,0.64,2.87,1.16c0.91,0.52,1.76,1.17,2.56,1.95c0.57,0.55,0.58,1.46,0.03,2.03 c-0.55,0.57-1.46,0.58-2.03,0.03c-0.64-0.62-1.3-1.13-1.99-1.52C85.52,26.37,84.81,26.08,84.07,25.9L84.07,25.9z"/></g></svg>