<?xml version="1.0" encoding="utf-8"?><svg version="1.1" id="Layer_1" xmlns="http://www.w3.org/2000/svg" xmlns:xlink="http://www.w3.org/1999/xlink" x="0px" y="0px" viewBox="0 0 122.88 108.72" style="enable-background:new 0 0 122.88 108.72" xml:space="preserve"><style type="text/css">.st0{fill-rule:evenodd;clip-rule:evenodd;}</style><g><path class="st0" d="M71.68,77.09c-0.9,5.24-5.16,9.24-10.24,9.24l0,0c-5.32,0-9.74-4.37-10.35-9.97 c-11.48-2.91-22.44-5.14-31.18-6.27c-5.94-0.77-10.8-1.05-14.01-0.7c7.35,5.59,13.62,10.94,19.24,15.74 c28.49,24.3,40.06,34.17,92.25-14.69c-1.06-0.07-2.25-0.16-3.56-0.27c-5.64-0.45-13.48-1.07-20.9-0.34 c-3.57,0.35-7.07,1.97-10.54,3.57C78.89,75.01,75.42,76.61,71.68,77.09L71.68,77.09z M37.8,44.38c1.39,0,2.52,1.13,2.52,2.52 c0,1.39-1.13,2.52-2.52,2.52c-1.39,0-2.52-1.13-2.52-2.52C35.28,45.51,36.41,44.38,37.8,44.38L37.8,44.38z M87.84,44.38 c-1.39,0-2.52,1.13-2.52,2.52c0,1.39,1.13,2.52,2.52,2.52c1.39,0,2.52-1.13,2.52-2.52C90.35,45.51,89.22,44.38,87.84,44.38 L87.84,44.38z M51.32,73.25c0.5-10.57-1.11-20.27-4.83-28.94c-3.76-8.76-9.69-16.5-17.83-23.08c-0.02-0.01-0.03-0.03-0.05-0.04 c-4.75,3.65-9.02,8.02-12.64,12.89c-4.9-7.58-6.72-15.53-5.88-23c7.07-0.9,13.82,2.11,20.36,7.65c0.05,0.03,0.09,0.06,0.14,0.1 c8.53,6.9,14.76,15.04,18.72,24.28c4,9.31,5.66,19.72,5.03,31.06l-0.03,0.57l-0.01,0.11h14.5c0.01-0.02,0.03-0.04,0.05-0.07 c-0.73-11.42,0.96-22.02,5-31.53c4.09-9.63,10.56-18.12,19.34-25.17c0.03-0.03,0.07-0.05,0.1-0.08c6.27-5.07,12.74-7.79,19.49-6.93 c0.83,7.35-0.93,15.18-5.66,22.66c-3.66-5.06-7.89-9.38-12.45-12.89c-8.15,6.66-14.17,14.62-17.98,23.61 c-3.77,8.88-5.39,18.8-4.79,29.51c3.07-0.52,6.12-1.93,9.19-3.35c3.7-1.71,7.43-3.43,11.54-3.84c7.73-0.76,15.7-0.12,21.44,0.33 c2.1,0.17,3.89,0.31,5.2,0.35c-0.79-4.9-2-9.53-3.56-13.87c-1.85-5.16-4.21-9.93-6.94-14.25c-0.36-0.56-0.3-1.27,0.09-1.77 c4.25-5.7,7.21-11.6,8.96-17.48c1.7-5.7,2.28-11.39,1.81-16.9c-5.09-0.41-10.08,0.66-14.99,2.93c-5.39,2.49-10.68,6.43-15.9,11.45 c-0.54,0.52-1.35,0.57-1.94,0.16c-4.69-2.78-9.59-4.81-14.48-6.03c-4.88-1.22-9.73-1.63-14.36-1.18l0,0 c-3.73,0.46-7.39,1.34-10.94,2.6c-3.68,1.31-7.25,3.01-10.64,5.05c-0.65,0.39-1.48,0.24-1.96-0.32 c-5.26-5.09-10.59-9.1-16.01-11.65C13.45,3.85,8.4,2.75,3.24,3.16C2.77,8.73,3.36,14.47,5.1,20.22c1.8,5.94,4.82,11.89,9.16,17.65 c0.42,0.56,0.41,1.31,0.01,1.84c-2.88,4.43-5.26,9.2-7.03,14.16c-1.47,4.13-2.52,8.38-3.06,12.69c3.61-0.64,9.24-0.42,16.13,0.48 C29.03,68.17,39.91,70.37,51.32,73.25L51.32,73.25z M122.48,68c0.15,0.2,0.26,0.44,0.29,0.71c0.06,0.42-0.06,0.83-0.3,1.15 c-0.15,0.31-0.41,0.57-0.73,0.72c-56.11,53.13-68.2,42.83-98.6,16.9c-6.25-5.33-13.3-11.35-21.69-17.58 c-0.53-0.4-0.74-1.07-0.56-1.67c0.48-5.24,1.67-10.41,3.44-15.39c1.73-4.86,4.04-9.56,6.83-13.97c-4.23-5.79-7.2-11.77-9.01-17.75 C0.16,14.54-0.42,7.95,0.3,1.6l0,0c0.08-0.69,0.62-1.27,1.34-1.36c6.2-0.79,12.21,0.4,18.08,3.15c5.49,2.58,10.85,6.53,16.1,11.51 c3.27-1.89,6.67-3.48,10.18-4.72c3.77-1.34,7.65-2.28,11.59-2.76l0,0l0.04,0c5-0.49,10.22-0.05,15.44,1.25 c4.84,1.21,9.7,3.18,14.39,5.85c5.19-4.87,10.48-8.72,15.9-11.23c5.77-2.67,11.69-3.83,17.78-3.07c0.74,0.04,1.36,0.61,1.44,1.37 c0.71,6.3,0.15,12.83-1.8,19.35c-1.77,5.94-4.7,11.87-8.85,17.62c2.61,4.26,4.87,8.93,6.68,13.97 C120.34,57.36,121.66,62.53,122.48,68L122.48,68z M36.56,41.54c2.96,0,5.36,2.4,5.36,5.36s-2.4,5.36-5.36,5.36 c-2.96,0-5.36-2.4-5.36-5.36S33.6,41.54,36.56,41.54L36.56,41.54z M86.6,41.54c-2.96,0-5.36,2.4-5.36,5.36s2.4,5.36,5.36,5.36 c2.96,0,5.36-2.4,5.36-5.36S89.56,41.54,86.6,41.54L86.6,41.54z"/></g></svg>