<?xml version="1.0" encoding="utf-8"?><svg version="1.1" id="Layer_1" xmlns="http://www.w3.org/2000/svg" xmlns:xlink="http://www.w3.org/1999/xlink" x="0px" y="0px" viewBox="0 0 114.59 122.88" style="enable-background:new 0 0 114.59 122.88" xml:space="preserve"><g><path d="M15.29,13.16c2.3-3.28,5.14-6.04,8.41-8.12c3.18-2.02,6.75-3.4,10.64-3.99c5.95-0.9,9.22,0.03,13.03,1.12 c1.87,0.53,3.89,1.11,6.44,1.49c1,0.15,1.96,0.25,2.87,0.29c0.91,0.04,1.82,0.03,2.72-0.03c3.06-0.23,5.18-1.07,7.24-1.89 c3.71-1.48,7.27-2.89,14.93-1.36c3.46,0.69,6.71,2.17,9.71,4.21c3.26,2.21,6.21,5.08,8.83,8.31c0.59,0.73,0.47,1.79-0.25,2.38 c-0.49,0.4-1.14,0.47-1.69,0.26c-1.19-0.35-2.38-0.62-3.56-0.75c6.19,4.63,10.97,10.25,14.31,16.83 c4.01,7.91,5.91,17.18,5.65,27.77c-0.02,0.93-0.79,1.67-1.72,1.64c-0.1,0-0.2-0.01-0.29-0.03l0,0.01l-6.09-1.22 c2.74,8.86,3.92,17.18,2.6,24.6c-1.49,8.36-6.11,15.52-15.18,20.97c-0.75,0.45-1.71,0.25-2.22-0.44l-4.56-6.14 c-0.76,2.36-1.71,4.58-2.85,6.63c-1.68,3.04-3.76,5.72-6.23,8.05c-6.58,6.2-13.43,9.21-20.32,9.15 c-6.98-0.06-13.88-3.27-20.48-9.48c-2.47-2.32-4.57-4.92-6.38-7.74c-1.36-2.12-2.55-4.35-3.6-6.69c-0.44,0.52-0.81,1.07-1.14,1.65 c-0.69,1.21-1.16,2.53-1.46,3.92c-0.2,0.91-1.1,1.49-2.01,1.29c-0.15-0.03-0.28-0.08-0.41-0.15c-7.25-3.7-12.63-9.04-15.15-16.91 c-2.34-7.31-2.16-16.74,1.38-28.99c-0.59,0.04-1.18,0.13-1.76,0.28c-1.49,0.37-2.9,1.03-4.07,1.79c-0.78,0.51-1.83,0.29-2.34-0.49 c-0.21-0.32-0.29-0.68-0.27-1.03c-0.12-10.26,1.4-19.52,5.2-27.48c3.34-6.97,8.41-12.92,15.64-17.62 c-1.18,0.01-2.46,0.21-3.79,0.54c-0.9,0.22-1.82-0.34-2.03-1.24C14.91,14.04,15.02,13.55,15.29,13.16L15.29,13.16L15.29,13.16z M50.66,73.42c-0.53-0.49-0.9-1-1.1-1.53c-0.3-0.75-0.27-1.48,0.09-2.19c0.96-1.9,2.62-1.86,4.05-1.82c0.01,0,0.03,0,0.38,0v0.01 l7.96-0.03l0.16,0c1.39-0.01,2.15-0.01,3.06,1.62c0.41,0.74,0.42,1.54,0.02,2.4c-0.24,0.52-0.66,1.08-1.25,1.68 c-0.03,0.03-0.07,0.06-0.1,0.09l0,0l-5.6,4.79c-0.68,0.58-1.7,0.53-2.31-0.11l-5.34-4.89L50.66,73.42L50.66,73.42L50.66,73.42z M53.62,71.25c-0.11,0-0.23-0.01-0.35-0.01l4,3.67l4.3-3.68l-7.5,0.03v0.01C54,71.26,53.89,71.26,53.62,71.25L53.62,71.25z M62.45,95.55c1.53-0.46,2.97-1.22,4.34-2.26c0.87-0.67,1.71-1.45,2.52-2.34l-11.53-4.6l-11.35,4.81c0.55,0.75,1.12,1.43,1.73,2.03 c1.09,1.08,2.3,1.9,3.64,2.42c0.06,0.02,0.12,0.05,0.18,0.08c1.61,0.76,3.25,1.06,4.93,1.03c1.74-0.04,3.54-0.45,5.38-1.12 C62.34,95.58,62.4,95.57,62.45,95.55L62.45,95.55z M71.93,88.37c4.04-2.22,6.47-5.04,7.52-8.39c1.12-3.57,0.7-7.83-1.02-12.68 c-0.24-0.67-0.02-1.39,0.48-1.83c0.62-0.6,1.4-1.32,2.18-2.04c3.89-3.6,7.63-7.05,7.64-12.09c0.01-1.97-0.3-3.81-0.9-5.58 c-0.6-1.78-1.5-3.49-2.68-5.19c-3.13-4.52-6.87-7.16-11.3-8.29c-4.55-1.15-9.91-0.75-16.17,0.85c-0.33,0.08-0.66,0.06-0.96-0.04 c-7.24-1.86-13.62-2.11-18.7,0.02c-5.01,2.09-8.85,6.58-11.13,14.24c-0.01,0.04-0.03,0.08-0.04,0.12 c-1.18,3.75-0.97,6.97,0.38,9.74c1.4,2.88,4.02,5.38,7.59,7.58c0.65,0.4,0.93,1.18,0.74,1.88c-1.45,6.09-1.39,10.9,0.1,14.49 c1.44,3.45,4.28,5.81,8.46,7.15c0.07,0.02,0.14,0.05,0.21,0.08l12.78-5.42c0.43-0.18,0.89-0.17,1.29-0.01L71.93,88.37L71.93,88.37z M68.84,95.97c-1.68,1.28-3.48,2.23-5.43,2.81c-2.15,0.78-4.29,1.26-6.44,1.31c-2.17,0.05-4.32-0.35-6.43-1.35 c-1.78-0.69-3.34-1.77-4.75-3.15c-1.23-1.21-2.33-2.65-3.32-4.28c-4.84-1.69-8.18-4.62-9.94-8.85c-1.67-4.01-1.86-9.15-0.51-15.45 c-3.59-2.38-6.29-5.12-7.84-8.33c-1.72-3.55-2.02-7.59-0.55-12.23c0.01-0.02,0.01-0.04,0.02-0.07c2.6-8.73,7.12-13.91,13.07-16.4 c5.74-2.4,12.72-2.21,20.53-0.24c6.62-1.65,12.38-2.02,17.41-0.75c5.25,1.33,9.63,4.41,13.26,9.65c1.36,1.95,2.4,3.95,3.11,6.04 c0.71,2.1,1.08,4.3,1.07,6.65c-0.02,6.51-4.28,10.45-8.73,14.56c-0.45,0.42-0.91,0.84-1.41,1.31c1.66,5.11,1.97,9.73,0.7,13.77 c-1.34,4.28-4.39,7.82-9.43,10.51C71.89,93.26,70.42,94.76,68.84,95.97L68.84,95.97z M79.03,50.13c0.67,0.65,0.68,1.72,0.03,2.38 c-0.65,0.67-1.72,0.68-2.38,0.03c-2.55-2.48-4.4-3.31-5.79-3.09c-1.32,0.22-2.46,1.48-3.52,3.21c-0.49,0.8-1.53,1.04-2.33,0.55 c-0.8-0.49-1.04-1.53-0.55-2.33c1.53-2.49,3.36-4.36,5.86-4.76C72.78,45.74,75.61,46.8,79.03,50.13L79.03,50.13z M38.13,52.55 c-0.67,0.65-1.74,0.63-2.38-0.03c-0.65-0.67-0.63-1.74,0.03-2.38c3.32-3.23,6.07-4.33,8.45-4.04c2.47,0.31,4.31,2.04,5.85,4.42 c0.5,0.78,0.28,1.83-0.51,2.33c-0.78,0.5-1.83,0.28-2.33-0.51c-1.02-1.59-2.13-2.73-3.41-2.89C42.43,49.28,40.62,50.13,38.13,52.55 L38.13,52.55z M25.51,7.88c-1.75,1.11-3.36,2.45-4.82,3.99c0.22,0,0.43,0,0.65,0c1.71,0.05,3.31,0.43,4.7,1.28 c0.26,0.15,0.48,0.37,0.63,0.65c0.45,0.82,0.14,1.84-0.67,2.29c-8.49,4.63-14.2,10.8-17.75,18.23c-3.24,6.77-4.71,14.62-4.87,23.32 c0.79-0.34,1.63-0.63,2.49-0.84c1.64-0.4,3.36-0.53,5.04-0.22c0.09,0.01,0.18,0.03,0.26,0.06c0.89,0.28,1.39,1.22,1.11,2.11 c-3.9,12.55-4.27,21.95-2.01,29.01c2,6.24,6.1,10.7,11.65,13.93c0.33-0.95,0.73-1.86,1.24-2.74c0.86-1.5,2-2.89,3.49-4.12 c0.15-0.14,0.33-0.26,0.54-0.35c0.86-0.35,1.85,0.07,2.2,0.93c1.21,2.99,2.62,5.82,4.3,8.43c1.67,2.6,3.59,4.98,5.85,7.11 c5.97,5.62,12.11,8.52,18.2,8.57c6,0.05,12.06-2.65,17.98-8.23c2.23-2.1,4.1-4.51,5.6-7.21c1.51-2.72,2.66-5.78,3.44-9.17l0,0 c0.09-0.38,0.3-0.73,0.64-0.98c0.75-0.55,1.8-0.4,2.36,0.35l5.69,7.66c7.28-4.77,11.04-10.85,12.29-17.85 c1.35-7.55-0.16-16.25-3.33-25.61c-0.12-0.29-0.16-0.63-0.09-0.96c0.18-0.92,1.07-1.51,1.99-1.33l6.92,1.38 c-0.02-9.18-1.81-17.24-5.31-24.15c-3.75-7.39-9.47-13.49-17.13-18.25c-0.39-0.22-0.7-0.6-0.82-1.07c-0.22-0.9,0.33-1.82,1.24-2.04 c1.67-0.41,3.33-0.52,4.99-0.41c-1.52-1.5-3.11-2.85-4.79-3.98c-2.63-1.78-5.46-3.07-8.48-3.68c-6.7-1.34-9.79-0.11-13.02,1.18 c-2.31,0.92-4.69,1.87-8.25,2.13c-1,0.07-2.04,0.08-3.11,0.03c-1.07-0.05-2.14-0.16-3.2-0.32c-2.78-0.41-4.91-1.02-6.88-1.58 c-3.43-0.98-6.38-1.82-11.61-1.03C31.41,4.91,28.28,6.11,25.51,7.88L25.51,7.88z M22.21,105.69c-0.67-0.34-1.05-1.1-0.88-1.86 L22.21,105.69L22.21,105.69z M22.22,105.69L22.22,105.69L22.22,105.69L22.22,105.69z"/></g></svg>