<?xml version="1.0" encoding="utf-8"?><svg version="1.1" id="Layer_1" xmlns="http://www.w3.org/2000/svg" xmlns:xlink="http://www.w3.org/1999/xlink" x="0px" y="0px" viewBox="0 0 120.54 122.88" style="enable-background:new 0 0 120.54 122.88" xml:space="preserve"><g><path d="M30.52,59.35c0.48-0.04,0.96,0.14,1.31,0.52c0.04,0.04,0.08,0.09,0.11,0.13c0.09,0.04,0.17,0.07,0.26,0.11 c6.08,2.47,13.34,2.69,20.77-0.42c0.04-0.02,0.08-0.04,0.12-0.06c0.83-0.35,1.78,0.04,2.13,0.87l5.48,13.06l5.45-12.71l0,0 l0.02-0.04c0.37-0.82,1.34-1.17,2.15-0.8c1.57,0.71,3.17,1.31,4.81,1.7c1.61,0.39,3.25,0.58,4.93,0.52 c3.97-0.16,7.54-1.03,10.69-2.43c0.27-0.26,0.61-0.41,0.96-0.45c3.62-1.79,6.63-4.3,8.96-7.25c1.97-2.5,3.46-5.32,4.43-8.28 c0.97-2.96,1.41-6.05,1.28-9.11c-0.26-6.39-3-12.62-8.6-17.06c-0.59-0.43-0.84-1.22-0.55-1.93l4.28-10.38 c-1.45,0.74-2.95,1.44-4.48,2.09c-2.98,1.26-6.09,2.35-9.32,3.29c-0.25,0.1-0.53,0.13-0.82,0.09c-4.59-0.7-8.74-0.51-12.49,0.41 c-4,0.98-7.56,2.79-10.73,5.25l0,0c-0.53,0.41-1.27,0.46-1.86,0.08c-4.34-2.77-8.45-4.66-12.33-5.56 c-3.78-0.87-7.36-0.81-10.75,0.3l0,0c-0.3,0.1-0.63,0.11-0.96,0.01c-3.25-0.95-6.43-2.13-9.39-3.41c-1.71-0.74-3.34-1.52-4.87-2.31 c0.3,0.77,0.63,1.53,0.97,2.3c1.05,2.37,2.27,4.7,3.51,6.87c0.46,0.69,0.32,1.63-0.34,2.16c-1.77,1.43-3.27,2.95-4.5,4.54 c-1.22,1.58-2.17,3.25-2.88,5.01c-2.86,7.04-2.55,14.02-0.07,19.9c1.31,3.1,3.23,5.9,5.61,8.25C25.77,56.5,28.03,58.12,30.52,59.35 L30.52,59.35z M41.94,19.64c4.55,0,8.67,1.84,11.65,4.83c2.98,2.98,4.83,7.1,4.83,11.65c0,4.55-1.84,8.67-4.83,11.65 c-2.98,2.98-7.1,4.83-11.65,4.83c-4.55,0-8.67-1.84-11.65-4.83c-2.98-2.98-4.83-7.1-4.83-11.65c0-4.55,1.84-8.67,4.83-11.65 C33.27,21.49,37.39,19.64,41.94,19.64L41.94,19.64z M51.28,26.77c-2.39-2.39-5.7-3.87-9.34-3.87c-3.65,0-6.95,1.48-9.34,3.87 c-2.39,2.39-3.87,5.7-3.87,9.34c0,3.65,1.48,6.95,3.87,9.34c2.39,2.39,5.7,3.87,9.34,3.87c3.65,0,6.95-1.48,9.34-3.87 c2.39-2.39,3.87-5.7,3.87-9.34C55.15,32.47,53.67,29.16,51.28,26.77L51.28,26.77z M78.05,19.64c4.55,0,8.67,1.84,11.65,4.83 c2.98,2.98,4.83,7.1,4.83,11.65c0,4.55-1.84,8.67-4.83,11.65c-2.98,2.98-7.1,4.83-11.65,4.83c-4.55,0-8.67-1.84-11.65-4.83 c-2.98-2.98-4.83-7.1-4.83-11.65c0-4.55,1.84-8.67,4.83-11.65C69.38,21.49,73.5,19.64,78.05,19.64L78.05,19.64z M87.4,26.77 c-2.39-2.39-5.7-3.87-9.34-3.87c-3.65,0-6.95,1.48-9.34,3.87c-2.39,2.39-3.87,5.7-3.87,9.34c0,3.65,1.48,6.95,3.87,9.34 c2.39,2.39,5.7,3.87,9.34,3.87c3.65,0,6.95-1.48,9.34-3.87c2.39-2.39,3.87-5.7,3.87-9.34C91.27,32.47,89.79,29.16,87.4,26.77 L87.4,26.77z M78.05,29.44c1.89,0,3.6,0.77,4.84,2c1.24,1.24,2,2.95,2,4.84s-0.77,3.6-2,4.84c-1.24,1.24-2.95,2-4.84,2 s-3.6-0.77-4.84-2c-1.24-1.24-2-2.95-2-4.84s0.77-3.6,2-4.84C74.45,30.21,76.16,29.44,78.05,29.44L78.05,29.44z M80.58,33.75 c-0.65-0.65-1.54-1.05-2.53-1.05c-0.99,0-1.88,0.4-2.53,1.05c-0.65,0.65-1.05,1.54-1.05,2.53c0,0.99,0.4,1.89,1.05,2.53 c0.65,0.65,1.54,1.05,2.53,1.05c0.99,0,1.88-0.4,2.53-1.05c0.65-0.65,1.05-1.54,1.05-2.53C81.63,35.29,81.23,34.4,80.58,33.75 L80.58,33.75z M41.94,29.44c1.89,0,3.6,0.77,4.84,2c1.24,1.24,2,2.95,2,4.84s-0.77,3.6-2,4.84c-1.24,1.24-2.95,2-4.84,2 c-1.89,0-3.6-0.77-4.84-2c-1.24-1.24-2-2.95-2-4.84s0.77-3.6,2-4.84C38.34,30.21,40.05,29.44,41.94,29.44L41.94,29.44z M44.47,33.75c-0.65-0.65-1.54-1.05-2.53-1.05c-0.99,0-1.88,0.4-2.53,1.05c-0.65,0.65-1.05,1.54-1.05,2.53 c0,0.99,0.4,1.89,1.05,2.53c0.65,0.65,1.54,1.05,2.53,1.05c0.99,0,1.88-0.4,2.53-1.05c0.65-0.65,1.05-1.54,1.05-2.53 C45.52,35.29,45.12,34.4,44.47,33.75L44.47,33.75z M31.69,63.4c-0.89,2.7-1.57,5.41-2.06,8.13c-0.57,3.22-0.87,6.43-0.88,9.63 c-0.02,7.63,1.44,15.14,4.81,21.5c0.58,1.1,1.23,2.17,1.93,3.2c0.06,0.07,0.11,0.15,0.16,0.23c2.82,4.06,6.59,7.5,11.44,9.97l0,0 c0.02,0.01,0.04,0.02,0.06,0.03c2.06,1.16,4.13,2.03,6.22,2.61c2.09,0.59,4.2,0.89,6.32,0.92c3.1,0.04,6.16-0.49,9.09-1.48 c3.07-1.04,5.99-2.59,8.64-4.53c3.7-2.72,6.62-6.01,8.87-9.72c2.48-4.08,4.17-8.67,5.25-13.55c1.05-4.78,1.28-9.53,0.61-14.25 l-0.01-0.05c-0.6-4.2-1.9-8.38-3.96-12.52c-3.02,1.11-6.36,1.79-9.99,1.94c-2,0.08-3.94-0.15-5.82-0.6 c-1.32-0.32-2.6-0.74-3.87-1.25l-6.32,14.75c-0.35,0.83-1.31,1.21-2.13,0.86c-0.41-0.17-0.7-0.49-0.86-0.87l0,0l-6.35-15.13 C45.32,66.01,37.98,65.76,31.69,63.4L31.69,63.4z M92.74,61.43c5.46,5.23,9.94,10.36,14.09,15.74c4.57,5.92,8.75,12.13,13.43,19.1 c0.45,0.67,0.33,1.57-0.25,2.1l0,0c-4.15,3.84-11.73,7.58-18.74,9.67c-5.77,1.72-11.28,2.31-14.54,0.97 c-2.06,2.69-4.51,5.12-7.39,7.24c-2.91,2.13-6.13,3.84-9.53,4.99c-3.25,1.1-6.68,1.69-10.16,1.64c-2.42-0.03-4.81-0.38-7.16-1.04 c-2.32-0.65-4.62-1.61-6.88-2.88c-4.93-2.51-8.85-5.92-11.86-9.94c-3.26,1.31-8.75,0.72-14.49-0.99 c-7.01-2.09-14.59-5.83-18.74-9.67l0,0c-0.58-0.53-0.7-1.42-0.25-2.1c4.67-6.97,8.85-13.18,13.43-19.1 c4.13-5.34,8.57-10.44,13.99-15.63c-2.25-1.27-4.32-2.83-6.14-4.63c-2.68-2.64-4.84-5.8-6.32-9.31c-2.81-6.64-3.16-14.5,0.04-22.38 c0.82-2.01,1.92-3.94,3.32-5.76c1.13-1.47,2.46-2.88,3.98-4.22c-1.08-1.95-2.13-4-3.04-6.06c-1-2.25-1.86-4.51-2.48-6.67 c-0.25-0.86,0.26-1.76,1.12-2.01c0.46-0.13,0.94-0.05,1.31,0.19c2.4,1.45,5.2,2.89,8.22,4.21c2.7,1.17,5.58,2.25,8.54,3.14 c3.83-1.14,7.82-1.19,11.99-0.22c3.96,0.92,8.08,2.74,12.39,5.39c3.29-2.38,6.95-4.15,11.04-5.15c4.06-0.99,8.51-1.22,13.39-0.52 c3.03-0.89,5.96-1.92,8.74-3.1c2.88-1.22,5.61-2.61,8.17-4.19c0.76-0.47,1.76-0.23,2.23,0.53c0.28,0.46,0.31,1.01,0.12,1.47l0,0 l-5.61,13.6c5.79,5.01,8.65,11.79,8.93,18.74c0.14,3.44-0.35,6.92-1.43,10.24c-1.08,3.31-2.75,6.47-4.98,9.29 C98.95,56.99,96.11,59.5,92.74,61.43L92.74,61.43z M27.44,66.32c-4.18,4.23-7.78,8.44-11.17,12.83 c-4.25,5.51-8.18,11.29-12.5,17.73c3.96,3.19,10.38,6.24,16.42,8.04c4.8,1.43,9.23,2.09,11.71,1.38c-0.43-0.69-0.83-1.4-1.21-2.12 c-3.62-6.85-5.2-14.88-5.18-23.01c0.01-3.43,0.31-6.83,0.91-10.19C26.7,69.42,27.04,67.87,27.44,66.32L27.44,66.32z M92.86,66.08 c1.23,3.16,2.06,6.33,2.51,9.52l0.01,0.06c0.72,5.11,0.48,10.24-0.65,15.38c-1.14,5.21-2.97,10.14-5.65,14.55 c-0.14,0.24-0.29,0.47-0.44,0.7c2.47,0.71,6.91,0.06,11.72-1.38c6.03-1.8,12.45-4.85,16.42-8.04c-4.32-6.44-8.24-12.22-12.5-17.73 C100.81,74.68,97.14,70.39,92.86,66.08L92.86,66.08z"/></g></svg>