<?xml version="1.0" encoding="utf-8"?><svg version="1.1" id="Layer_1" xmlns="http://www.w3.org/2000/svg" xmlns:xlink="http://www.w3.org/1999/xlink" x="0px" y="0px" viewBox="0 0 120.95 122.88" style="enable-background:new 0 0 120.95 122.88" xml:space="preserve"><style type="text/css">.st0{fill-rule:evenodd;clip-rule:evenodd;}</style><g><path class="st0" d="M49.4,78.2c3.76,0,6.81,3.05,6.81,6.81c0,3.76-3.05,6.81-6.81,6.81c-3.76,0-6.81-3.05-6.81-6.81 C42.6,81.25,45.64,78.2,49.4,78.2L49.4,78.2z M71.32,78.2c3.76,0,6.81,3.05,6.81,6.81c0,3.76-3.05,6.81-6.81,6.81 c-3.76,0-6.81-3.05-6.81-6.81C64.51,81.25,67.56,78.2,71.32,78.2L71.32,78.2z M90.15,18.92c3.52-2.42,6.83-5.03,9.95-7.81 c3.6-3.2,6.9-6.6,9.96-10.16c0.98-1.15,2.71-1.28,3.86-0.3c0.11,0.1,0.22,0.2,0.31,0.31l0,0c3.52,4.16,5.32,12.17,5.19,20.45 c-0.12,7.38-1.76,15.13-5.06,20.66c4.22,7.58,6.6,16.16,6.6,25.25c0,15.37-6.8,29.28-17.8,39.34 c-10.94,10.01-26.03,16.21-42.68,16.21c-16.64,0-31.73-6.19-42.68-16.21C6.8,96.61,0,82.7,0,67.33c0-8.84,2.25-17.2,6.25-24.62 c-3.57-5.56-5.33-13.63-5.46-21.3C0.66,13.14,2.46,5.13,5.98,0.97l0,0c0.09-0.11,0.2-0.21,0.31-0.31c1.15-0.98,2.88-0.85,3.86,0.3 c3.06,3.56,6.36,6.96,9.96,10.16c3.22,2.87,6.63,5.55,10.27,8.03c8.87-4.69,19.14-7.37,30.09-7.37 C71.25,11.78,81.38,14.38,90.15,18.92L90.15,18.92z M60.48,61.38c8.58,0,16.39,2.56,22.08,6.69c5.94,4.32,9.62,10.36,9.62,17.09 c0,6.74-3.67,12.78-9.62,17.09c-5.69,4.13-13.49,6.69-22.08,6.69c-8.58,0-16.39-2.56-22.08-6.69c-5.94-4.32-9.62-10.36-9.62-17.09 c0-6.74,3.67-12.78,9.62-17.09C44.08,63.94,51.89,61.38,60.48,61.38L60.48,61.38z M79.33,72.51c-4.79-3.48-11.46-5.63-18.86-5.63 c-7.4,0-14.07,2.15-18.86,5.63c-4.54,3.3-7.34,7.77-7.34,12.65c0,4.88,2.81,9.36,7.34,12.65c4.79,3.48,11.46,5.63,18.86,5.63 c7.4,0,14.07-2.15,18.86-5.63c4.54-3.3,7.34-7.77,7.34-12.65C86.68,80.28,83.87,75.81,79.33,72.51L79.33,72.51z M34.46,45.94 c3.76,0,6.81,3.05,6.81,6.81s-3.05,6.81-6.81,6.81c-3.76,0-6.81-3.05-6.81-6.81S30.7,45.94,34.46,45.94L34.46,45.94z M85.53,45.94 c3.76,0,6.81,3.05,6.81,6.81s-3.05,6.81-6.81,6.81c-3.76,0-6.81-3.05-6.81-6.81S81.77,45.94,85.53,45.94L85.53,45.94z M110.94,36.73c1.93-4.4,2.91-9.98,2.99-15.4c0.09-5.37-0.67-10.48-2.21-14c-2.52,2.75-5.17,5.38-7.98,7.89 c-2.63,2.35-5.43,4.6-8.39,6.74c2.78,1.81,5.39,3.83,7.8,6.03C106.06,30.65,108.67,33.58,110.94,36.73L110.94,36.73z M9.55,37.37 c2.38-3.4,5.14-6.54,8.25-9.38c2.3-2.1,4.78-4.03,7.41-5.78c-3.1-2.22-6.01-4.55-8.75-6.99c-2.81-2.5-5.47-5.14-7.98-7.89 c-1.54,3.52-2.3,8.63-2.21,14C6.36,27.01,7.43,32.87,9.55,37.37L9.55,37.37z M99.42,31.98c-9.95-9.1-23.71-14.73-38.94-14.73 c-15.23,0-29,5.63-38.94,14.73C11.64,41.03,5.52,53.53,5.52,67.33c0,13.8,6.12,26.3,16.01,35.35c9.95,9.1,23.71,14.73,38.94,14.73 c15.23,0,29-5.63,38.94-14.73c9.89-9.05,16.01-21.55,16.01-35.35C115.43,53.53,109.31,41.03,99.42,31.98L99.42,31.98z"/></g></svg>