<?xml version="1.0" encoding="utf-8"?><svg version="1.1" id="Layer_1" xmlns="http://www.w3.org/2000/svg" xmlns:xlink="http://www.w3.org/1999/xlink" x="0px" y="0px" viewBox="0 0 122.88 115.53" style="enable-background:new 0 0 122.88 115.53" xml:space="preserve"><g><path d="M91.44,96.26l3.16,5.1c3.02-4.16,5.6-8.75,7.77-13.75c0.3-0.69,1.11-1.01,1.8-0.72c0.39,0.17,0.67,0.5,0.78,0.89l2.19,7.6 c1.04-1.94,1.86-4.08,2.46-6.43c0.88-3.48,1.28-7.4,1.19-11.75c-0.01-0.76,0.59-1.38,1.35-1.39c0.4-0.01,0.77,0.16,1.03,0.44 l3.6,3.86c0.6-4.29,0.53-8.6-0.06-12.94c-0.72-5.28-2.21-10.59-4.21-15.92c-0.26-0.71,0.1-1.5,0.81-1.76 c0.29-0.11,0.59-0.11,0.86-0.03L119.5,51c-1.14-3.54-2.8-6.87-4.84-10.05c-2.51-3.91-5.59-7.6-8.98-11.17 c-0.37-0.39-0.47-0.95-0.29-1.43c1.28-3.37,2.95-10.64,2.7-16.78c-0.16-3.81-1.04-7.1-3.23-8.45l-0.08-0.05 c-0.44-0.25-0.93-0.35-1.45-0.31c-0.64,0.04-1.35,0.28-2.11,0.69L85.3,11.51c-0.4,0.2-0.86,0.19-1.24,0 c-8.11-4.1-15.93-5.9-23.49-5.77c-7.57,0.13-14.91,2.18-22.08,5.77c-0.4,0.2-0.86,0.19-1.23,0L21.47,3.56 c-3.33-1.4-5,0.58-5.79,3.43l0,0c-0.97,3.48-0.85,8.14-0.69,10.79c0.13,2.05,0.43,3.99,0.91,5.84c0.48,1.85,1.13,3.59,1.94,5.25 c0.28,0.57,0.12,1.24-0.33,1.64c-3.72,3.23-6.69,6.83-9.09,10.7c-1.97,3.17-3.56,6.52-4.89,10l4.93-1.16 c0.74-0.17,1.48,0.29,1.65,1.03C10.18,51.4,10.14,51.73,10,52c-2.01,4.76-3.27,9.78-3.88,15.03c-0.49,4.28-0.54,8.7-0.19,13.27 l3.6-4.4c0.48-0.59,1.35-0.67,1.94-0.19c0.35,0.29,0.53,0.72,0.5,1.15c0.09,4.58,0.58,8.67,1.51,12.22c0.61,2.31,1.4,4.38,2.39,6.2 l1.92-8.44c0.17-0.74,0.9-1.2,1.64-1.04c0.46,0.1,0.82,0.43,0.98,0.84c1.11,2.88,2.37,5.7,3.89,8.41c1.2,2.14,2.57,4.21,4.16,6.17 l2.89-5.02c0.07-0.12,0.16-0.23,0.25-0.32c-1.9-10.02,1.95-13.1,5.68-16.07c2.35-1.87,4.64-3.7,4.67-7.86 c0-0.76,0.62-1.37,1.38-1.37c0.76,0,1.37,0.62,1.37,1.38c-0.04,5.42-2.77,7.66-5.6,9.92c1.17,0.45,2.2,0.92,3.11,1.42 c1.45,0.8,2.59,1.66,3.49,2.57c0.53,0.54,0.53,1.41-0.01,1.94c-0.54,0.53-1.41,0.53-1.94-0.01c-0.72-0.72-1.65-1.43-2.86-2.09 c-1.13-0.62-2.51-1.21-4.18-1.76c-0.92,0.94-1.72,2.04-2.23,3.5c2.33,0.77,4.18,1.63,5.65,2.57c1.65,1.05,2.82,2.2,3.67,3.39 c0.44,0.62,0.29,1.47-0.32,1.91c-0.62,0.44-1.47,0.29-1.91-0.32c-0.66-0.93-1.58-1.83-2.91-2.67c-1.21-0.77-2.75-1.5-4.72-2.17 c-0.13,1.71,0.03,3.8,0.62,6.41c0.01,0.06,0.02,0.12,0.03,0.17c0.57,0.42,1.22,0.87,1.94,1.32c2.73,1.7,6.35,3.35,10,3.71 c3.49,0.34,7.03-0.52,9.82-3.76c0.47-0.54,0.92-1.16,1.36-1.87c0.02-0.03,0.04-0.06,0.07-0.1c-2.04-0.85-3.79-2.32-4.89-3.97 c-0.66-0.99-1.1-2.06-1.26-3.13c-0.17-1.15-0.01-2.28,0.54-3.33c0.98-1.82,3.16-3.25,6.96-3.67c0.94-0.1,1.9-0.14,2.9-0.1 c0.99,0.04,1.99,0.16,3,0.35c2.32,0.44,4.04,0.79,5.17,1.86c1.25,1.19,1.53,2.89,0.65,5.83c-0.55,1.82-1.62,3.33-3.2,4.51 c-0.71,0.53-1.53,0.99-2.45,1.38c0.16,0.12,0.3,0.28,0.39,0.47c0.37,0.63,0.76,1.2,1.17,1.7c2.49,3.04,5.85,3.87,9.23,3.58 c3.57-0.31,7.19-1.83,9.95-3.42c0.87-0.5,1.65-1,2.32-1.48l0.01-0.07c0.59-2.6,0.75-4.68,0.62-6.39c-1.94,0.66-3.46,1.38-4.65,2.14 c-1.32,0.84-2.25,1.74-2.91,2.67c-0.44,0.62-1.3,0.76-1.91,0.32c-0.62-0.44-0.76-1.3-0.32-1.91c0.85-1.2,2.02-2.34,3.67-3.39 c1.45-0.93,3.28-1.79,5.58-2.55c-0.51-1.47-1.3-2.57-2.22-3.51c-1.41,0.46-2.61,0.96-3.63,1.48l-0.1,0.05 c-1.08,0.56-1.95,1.15-2.67,1.76c-0.58,0.49-1.44,0.43-1.94-0.15c-0.49-0.58-0.43-1.44,0.15-1.94c0.86-0.74,1.91-1.44,3.2-2.11 l0.1-0.06c0.75-0.38,1.57-0.75,2.49-1.1c-2.84-2.27-5.58-4.5-5.63-9.94c0-0.76,0.61-1.37,1.37-1.38c0.76,0,1.37,0.61,1.38,1.37 c0.03,4.16,2.32,5.99,4.67,7.86c3.73,2.97,7.59,6.05,5.67,16.11c0.03,0.03,0.05,0.06,0.08,0.09C91.35,96.09,91.4,96.18,91.44,96.26 L91.44,96.26z M18.74,8.63c-0.72-0.25-1.1-1.03-0.85-1.74c0.25-0.72,1.03-1.1,1.74-0.85c2.15,0.74,4.51,1.88,6.79,3.15 c2.69,1.5,5.3,3.21,7.3,4.69c0.61,0.45,0.74,1.31,0.28,1.92c-0.45,0.61-1.31,0.74-1.92,0.28c-1.92-1.42-4.41-3.06-7-4.5 C22.93,10.38,20.71,9.31,18.74,8.63L18.74,8.63z M103.25,6.04c0.72-0.25,1.5,0.13,1.74,0.85c0.25,0.72-0.13,1.5-0.85,1.74 c-1.97,0.68-4.19,1.75-6.35,2.96c-2.58,1.44-5.08,3.08-7,4.5c-0.61,0.45-1.47,0.32-1.92-0.28c-0.45-0.61-0.32-1.47,0.28-1.92 c2-1.49,4.6-3.19,7.3-4.69C98.74,7.92,101.1,6.78,103.25,6.04L103.25,6.04z M41.49,30.13c-0.71,0.26-1.5-0.11-1.76-0.82 s0.11-1.5,0.82-1.76c6.41-2.35,13.64-3.6,20.93-3.66c7.11-0.06,14.28,1.02,20.83,3.31c0.72,0.25,1.09,1.03,0.84,1.75 c-0.25,0.72-1.03,1.09-1.75,0.84c-6.25-2.19-13.1-3.22-19.9-3.16C54.53,26.69,47.62,27.89,41.49,30.13L41.49,30.13z M50.01,37.86 c-0.73,0.2-1.49-0.22-1.69-0.95c-0.2-0.73,0.22-1.49,0.95-1.69c3.64-1.03,7.76-1.56,11.96-1.6c4.18-0.03,8.43,0.43,12.34,1.39 c0.74,0.18,1.19,0.93,1.01,1.66c-0.18,0.74-0.92,1.19-1.66,1.01c-3.7-0.91-7.71-1.35-11.66-1.31 C57.31,36.39,53.43,36.89,50.01,37.86L50.01,37.86z M12.49,60.41c-0.9-4.43-0.17-8.44,2.03-11.89C11.3,71.71,30.14,69.48,25.74,85 C24.06,73.57,14.55,70.59,12.49,60.41L12.49,60.41z M111.87,60.41c0.9-4.43,0.17-8.44-2.03-11.89 C113.07,71.71,94.22,69.48,98.62,85C100.31,73.57,109.82,70.59,111.87,60.41L111.87,60.41z M102.76,51.52 c0.9-3.76,0.17-7.16-2.03-10.09c3.22,19.68-15.62,17.78-11.22,30.96C91.19,62.68,100.7,60.16,102.76,51.52L102.76,51.52z M20.32,51.52c-0.9-3.76-0.17-7.16,2.03-10.09c-3.22,19.68,15.62,17.78,11.22,30.96C31.88,62.68,22.37,60.16,20.32,51.52 L20.32,51.52z M31.46,43.42c-1.5,0.25-2.75,0.16-3.9-0.31c-1.22-0.49-2.32-1.42-3.46-2.82c0.78,4.84,4.96,4.3,6.48,6.55 c0.55,0.8,1.11,2.02,1.68,3.33c1.01,2.33,1.3,3.71,3.7,5.08c3.03,1.73,6.03,0.58,10.07,5.86c0.51-1.24,0.85-2.54,1.04-3.87 C48.59,46.57,40.78,42.56,31.46,43.42L31.46,43.42z M37.89,45.1c-0.08,0.29-0.12,0.59-0.12,0.89c0,1.93,1.57,3.5,3.5,3.5 c1.04,0,1.98-0.46,2.62-1.18l0.13,0.07c0.46,0.99,0.96,1.97,1.51,2.96c-1.49,1.7-3.06,2.69-4.7,2.96 c-5.73,0.95-8.62-4.16-7.19-9.62l4.01,0.3L37.89,45.1L37.89,45.1z M85.88,45.1C85.96,45.39,86,45.69,86,46c0,1.93-1.57,3.5-3.5,3.5 c-1.04,0-1.98-0.46-2.62-1.18l-0.13,0.07c-0.46,0.99-0.96,1.97-1.51,2.96c1.49,1.7,3.06,2.69,4.7,2.96 c5.73,0.95,8.62-4.16,7.19-9.62l-4.01,0.3L85.88,45.1L85.88,45.1z M92.31,43.42c1.5,0.25,2.75,0.16,3.9-0.31 c1.22-0.49,2.32-1.42,3.46-2.82c-0.78,4.84-4.96,4.3-6.48,6.55c-0.55,0.8-1.11,2.02-1.68,3.33c-1.01,2.33-1.3,3.71-3.7,5.08 c-3.03,1.73-6.03,0.58-10.07,5.86c-0.51-1.24-0.85-2.54-1.04-3.87C75.18,46.57,82.99,42.56,92.31,43.42L92.31,43.42z M65.99,92.21 c1.09-0.81,1.82-1.84,2.2-3.09c0.53-1.77,0.53-2.65,0.09-3.06c-0.56-0.53-1.92-0.8-3.78-1.15c-0.89-0.17-1.76-0.27-2.6-0.31 c-0.84-0.03-1.67,0-2.49,0.09c-2.77,0.31-4.27,1.16-4.84,2.23c-0.26,0.49-0.33,1.05-0.24,1.64c0.1,0.66,0.39,1.35,0.83,2.02 c1.26,1.9,3.65,3.46,6.2,3.53C63.3,93.69,64.85,93.06,65.99,92.21L65.99,92.21z M50.72,106.33c4.6-0.12,8.13-1.8,10.67-6.13 c2.49,4.01,6.05,6.14,10.15,6.13c-0.88,1.02-1.8,1.82-2.78,2.39c-2.87,1.68-11.69,1.4-14.39,0.22 C53.04,108.36,51.83,107.47,50.72,106.33L50.72,106.33z M41.3,103.53c-0.02-0.05-0.04-0.1-0.05-0.15 c-2.29-0.79-4.41-1.87-6.18-2.97c-0.78-0.49-1.5-0.98-2.14-1.46l-3.01,5.23c-0.08,0.16-0.18,0.31-0.32,0.43 c-0.56,0.51-1.43,0.46-1.94-0.1c-2.29-2.55-4.16-5.27-5.76-8.12c-0.87-1.55-1.66-3.14-2.38-4.76l-1.68,7.38 c-0.06,0.31-0.24,0.59-0.5,0.8c-0.6,0.46-1.46,0.35-1.93-0.25c-2.06-2.66-3.57-5.94-4.58-9.8c-0.74-2.81-1.21-5.93-1.44-9.34 l-3.44,4.2c-0.22,0.27-0.54,0.45-0.91,0.49c-0.75,0.09-1.44-0.46-1.52-1.21c-0.69-5.94-0.76-11.68-0.12-17.19 c0.53-4.63,1.56-9.1,3.14-13.4l-4.84,1.14c-0.24,0.06-0.5,0.05-0.75-0.04c-0.72-0.24-1.1-1.02-0.86-1.74 c1.55-4.52,3.48-8.86,6.01-12.93c2.37-3.81,5.26-7.38,8.85-10.63c-0.69-1.54-1.25-3.14-1.69-4.81c-0.53-2.02-0.86-4.14-1-6.36 c-0.17-2.83-0.3-7.82,0.78-11.69c1.26-4.49,3.96-7.56,9.51-5.23l15.35,7.73c7.33-3.59,14.86-5.63,22.64-5.76 c7.81-0.13,15.85,1.67,24.15,5.75l15.26-7.74c1.1-0.58,2.16-0.92,3.19-1c1.08-0.08,2.1,0.14,3.05,0.7l0.11,0.06 c3.11,1.91,4.34,6.03,4.53,10.69c0.25,6.07-1.27,13.19-2.58,17.04c3.28,3.49,6.26,7.11,8.72,10.96c2.64,4.11,4.68,8.48,5.86,13.21 c0.05,0.23,0.05,0.47-0.02,0.72c-0.21,0.73-0.97,1.15-1.7,0.94l-5.14-1.49c1.61,4.66,2.81,9.32,3.44,13.97 c0.75,5.52,0.7,11.03-0.43,16.51c-0.05,0.28-0.19,0.55-0.42,0.76c-0.56,0.52-1.42,0.49-1.94-0.07l-3.14-3.37 c-0.13,3.24-0.54,6.24-1.23,8.98c-0.95,3.76-2.44,7.06-4.48,9.9c-0.17,0.24-0.43,0.43-0.74,0.52c-0.73,0.21-1.49-0.21-1.69-0.94 l-2.03-7.02c-2.22,4.55-4.8,8.75-7.76,12.56c-0.1,0.13-0.22,0.24-0.37,0.33c-0.64,0.4-1.49,0.2-1.89-0.45l-3.48-5.62 c-0.74,0.52-1.6,1.08-2.55,1.62c-1.36,0.78-2.92,1.55-4.59,2.19c0.02,0.22-0.01,0.45-0.11,0.67c-2.05,4.76-5.87,8.12-10.42,10.09 c-3.19,1.38-6.74,2.07-10.29,2.07c-3.55,0-7.1-0.68-10.27-2.04C47.11,111.55,43.33,108.23,41.3,103.53L41.3,103.53z M44.78,104.31 c1.84,3.02,4.66,5.24,7.93,6.65c2.84,1.22,6.01,1.83,9.19,1.83c3.18,0,6.36-0.62,9.2-1.85c3.44-1.49,6.39-3.88,8.24-7.17 c-1.03,0.25-2.09,0.43-3.14,0.52c-4.21,0.36-8.42-0.71-11.59-4.58c-0.36-0.44-0.71-0.92-1.04-1.44H59.6 c-0.38,0.56-0.78,1.08-1.19,1.56c-3.48,4.04-7.86,5.12-12.16,4.69C45.76,104.47,45.27,104.4,44.78,104.31L44.78,104.31z"/></g></svg>