<?xml version="1.0" encoding="utf-8"?><svg version="1.1" id="Layer_1" xmlns="http://www.w3.org/2000/svg" xmlns:xlink="http://www.w3.org/1999/xlink" x="0px" y="0px" viewBox="0 0 115.01 122.88" style="enable-background:new 0 0 115.01 122.88" xml:space="preserve"><style type="text/css">.st0{fill-rule:evenodd;clip-rule:evenodd;}</style><g><path class="st0" d="M101.77,38.44c7.14-1.13,11.02-9.79,13.23-22.33H98.36c-7.69,1.69-12.99,5.96-16.13,12.95 c-3.82-3.25-8.12-5.76-12.75-7.37v-9.74C69.48,5.38,64.1,0,57.53,0h0c-6.57,0-11.95,5.38-11.95,11.95v9.74 c-4.66,1.61-8.98,4.15-12.81,7.42c-3.14-6.97-8.44-11.24-16.11-12.92H0c2.21,12.53,6.1,21.2,13.23,22.33h11.19 c-5.69,8.45-9.09,19.14-9.09,30.75c0,6.99,1.23,13.63,3.45,19.66c-7,7.46-10.16,16.4-9.82,26.8c0.03,1.07,0.11,2.15,0.22,3.25 c0.3,2.96,0.18,2.76,3.3,3.46c7.3,1.63,15.02-1.18,23.37-10.61c6.34,4.47,13.75,7.04,21.68,7.04c8.08,0,15.62-2.67,22.03-7.3 c8.35,9.43,16.15,12.23,23.45,10.61c3.12-0.7,3-0.5,3.3-3.46c0.11-1.1,0.18-2.18,0.22-3.25c0.33-10.46-3.03-19.44-10.12-26.93 c2.13-5.93,3.3-12.44,3.3-19.28c0-11.66-3.42-22.37-9.15-30.84H101.77L101.77,38.44z M57.55,52.52c9.24,0,16.73,7.49,16.73,16.74 s-7.49,16.74-16.73,16.74c-9.24,0-16.74-7.49-16.74-16.74S48.3,52.52,57.55,52.52L57.55,52.52z M57.55,29.39 c5.83,0,11.31,1.73,16.1,4.77c-1.99,7.02-8.45,12.16-16.1,12.16c-7.66,0-14.11-5.14-16.1-12.16 C46.24,31.11,51.72,29.39,57.55,29.39L57.55,29.39z M85.21,46.18c3.94,6.51,6.26,14.48,6.26,23.08c0,2.19-0.15,4.34-0.44,6.43 c-5.59-1.49-10.26-5.85-11.86-11.84C77.34,57.08,79.95,50.17,85.21,46.18L85.21,46.18z M86.3,90.41 c-5.54,10.39-15.03,17.56-26,18.59c-2.45-7.38,0.53-15.71,7.52-19.75C73.83,85.78,81.1,86.47,86.3,90.41L86.3,90.41z M42.92,105.24 c-8.64-4.86-15.25-13.9-17.95-24.88c5.37-1.16,11.21,0.35,15.38,4.52C45.87,90.4,46.72,98.82,42.92,105.24L42.92,105.24z M23.78,65.56c0.86-10.92,5.45-20.57,12.28-27.15c4.16,5.22,4.94,12.67,1.4,18.8C34.51,62.32,29.26,65.29,23.78,65.56L23.78,65.56z"/></g></svg>