<?xml version="1.0" encoding="utf-8"?><svg version="1.1" id="Layer_1" xmlns="http://www.w3.org/2000/svg" xmlns:xlink="http://www.w3.org/1999/xlink" x="0px" y="0px" viewBox="0 0 122.88 118.28" style="enable-background:new 0 0 122.88 118.28" xml:space="preserve"><g><path d="M102.42,5.69c-2.36,1.03-4.4,2.7-6,4.74c-1.49,1.9-2.61,4.12-3.27,6.46l11.16,13.52c0.11-0.12,0.22-0.24,0.33-0.36 c0.27-0.29,0.6-0.49,0.95-0.6c2.14-0.64,4.07-1.65,5.76-2.94c1.82-1.39,3.37-3.1,4.65-5.02c2.13-3.21,2.91-6.35,2.63-9.05 c-0.19-1.9-0.92-3.59-2.05-4.94c-1.14-1.35-2.69-2.35-4.55-2.88C109.36,3.87,106.06,4.09,102.42,5.69L102.42,5.69z M90.73,20.55 c-0.3,0.25-0.61,0.49-0.92,0.71c-1,0.69-2.07,1.18-3.2,1.47c-0.71,0.18-1.37,0.29-2.01,0.34l2.25,15.44c2.73-0.1,5.49-0.74,8.1-1.8 c2.22-0.9,4.33-2.09,6.21-3.51L90.73,20.55L90.73,20.55z M109.69,13.24c1.2,1.2,1.2,3.14,0,4.34c-1.2,1.2-3.14,1.2-4.34,0 c-1.2-1.2-1.2-3.14,0-4.34C106.55,12.04,108.5,12.04,109.69,13.24L109.69,13.24z M12.75,63.47l4.59,8.81c1,0.08,2.1,0.37,3.31,0.88 c2.14,0.91,4.66,2.43,7.45,4.3l-0.29-7.73l-5.97-3.45c-1.88-1.16-3.69-1.98-5.42-2.42C15.15,63.53,13.93,63.4,12.75,63.47 L12.75,63.47z M13.23,73.49l-4.63-8.87c-1.25,0.68-2.24,1.62-2.95,2.74c-0.72,1.14-1.15,2.49-1.26,3.95l6.98,6.67 c0.03-0.99,0.21-1.88,0.54-2.64C12.23,74.61,12.67,73.99,13.23,73.49L13.23,73.49z M0.19,72.89c-0.25-0.56-0.25-1.21,0.01-1.77 c0.15-2.2,0.8-4.25,1.91-6.01c1.67-2.65,4.36-4.63,7.85-5.46l0.11-0.03c0.26-0.06,0.56-0.12,0.88-0.17 c2.11-0.35,4.28-0.24,6.5,0.34c2.14,0.55,4.33,1.53,6.57,2.91l22.3,12.88c3.04,1.9,5.98,3.68,8.68,5.09 c2.6,1.36,4.95,2.36,6.91,2.8l0.01,0.01c0.72,0.16,1.41,0.16,2.04,0.03c0.83-0.17,1.57-0.56,2.14-1.12c0.58-0.57,1-1.33,1.2-2.21 l0.01-0.01c0.15-0.7,0.16-1.48-0.01-2.33c-0.48-2.42-2.52-5.07-4.94-7.89c-0.17-0.14-0.32-0.32-0.44-0.51l-1.04-1.19l-0.91-1.04 c-1.13-1.3-2.14-2.44-3.17-3.6l-0.02-0.03c-2.56-2.88-5.2-5.85-7.5-8.81c-4.05-5.21-6.82-11.3-7.77-17.24 c-0.64-3.98-0.47-7.91,0.67-11.49c1.15-3.65,3.29-6.9,6.57-9.45c3.11-2.42,7.22-4.19,12.47-5.03c1.13-0.18,2.23-0.27,3.29-0.27 c1.08,0,2.13,0.08,3.14,0.23c1.41,0.21,2.73,0.58,4.01,1.08c1.26,0.49,2.44,1.1,3.61,1.8l0.01,0.01c0.96,0.58,1.83,1.2,2.68,1.8 c2.36,1.68,4.57,3.25,7.6,2.48c0.66-0.17,1.28-0.45,1.86-0.85c0.51-0.35,1.01-0.81,1.49-1.36c0.78-3.13,2.22-6.11,4.2-8.63 c2.01-2.56,4.59-4.66,7.62-5.98c4.59-2.01,8.89-2.27,12.44-1.27c2.69,0.76,4.96,2.23,6.62,4.2c1.67,1.98,2.73,4.46,3.01,7.23 c0.37,3.62-0.6,7.72-3.32,11.81c-1.53,2.31-3.41,4.36-5.59,6.03c-1.94,1.48-4.12,2.66-6.54,3.45c-2.94,3.11-6.72,5.66-10.82,7.32 c-4.15,1.67-8.66,2.44-13,1.98c-1.78-0.19-3.6-0.53-5.42-1.08c-1.67-0.5-3.37-1.18-5.05-2.07c-0.79-0.41-1.51-0.9-2.24-1.39 c-1.83-1.22-3.78-2.53-5.1-0.86c-0.31,0.39-0.51,0.88-0.53,1.39c-0.02,0.45,0.1,0.94,0.39,1.43l0.02,0.03 c2.5,3.74,5.03,7.21,7.56,10.68c1.53,2.1,3.07,4.2,4.29,5.93c0.89,1.25,1.82,2.5,2.75,3.74c4.14,5.53,8.14,10.87,8.94,17.42 c0.02,0.11,0.04,0.23,0.05,0.35l0,0.13c0.21,2.1,0.08,4.32-0.47,6.72l-0.04,0.19c-1.16,4.85-3.8,9.48-7.46,12.98 c-3.45,3.3-7.81,5.59-12.69,6.12c-9.2,0.99-22.45-8.68-33.92-17.04C28.47,82.76,22.86,78.67,19,77.03 c-1.19-0.51-2.08-0.66-2.66-0.53c-0.13,0.03-0.24,0.08-0.32,0.15c-0.09,0.08-0.17,0.2-0.24,0.35c-0.3,0.7-0.29,1.82,0.04,3.26 c0.21,0.93,0.5,1.77,0.83,2.55c0.35,0.83,0.74,1.58,1.15,2.3c2.21,3.87,4.38,8.22,5.18,12.7c0.85,4.73,0.2,9.53-3.4,13.95 l-0.04,0.05c-0.65,0.79-1.38,1.55-2.21,2.27c-0.82,0.72-1.73,1.41-2.73,2.09c-1.03,0.7-2.04,1.23-3.01,1.58 c-0.98,0.35-1.92,0.53-2.84,0.52c-0.71,0.05-1.42-0.27-1.86-0.89c-0.67-0.95-0.44-2.26,0.51-2.93c2.38-1.67,4.21-3.44,5.46-5.31 c1.18-1.77,1.85-3.63,2-5.59l0-0.06c0.47-6.18-3.22-10.71-6.9-15.23c-3.08-3.78-6.16-7.57-7.35-12.52l-0.05-0.18 c-0.07-0.29-0.13-0.61-0.19-0.94C0.29,74.04,0.22,73.46,0.19,72.89L0.19,72.89z M13.23,85.44c-0.18-0.09-0.35-0.21-0.51-0.36 l-6.24-5.97c1.29,2.26,3.02,4.38,4.74,6.5c3.79,4.65,7.59,9.32,7.87,15.94c0.02-0.99-0.08-2-0.26-2.99 c-0.7-3.9-2.67-7.84-4.68-11.36C13.83,86.62,13.52,86.04,13.23,85.44L13.23,85.44z M32.09,72.21l0.31,8.07c0,0.06,0,0.12,0,0.18 c1.52,1.09,3.09,2.23,4.7,3.41c2.17,1.58,4.4,3.21,6.65,4.8l-1.56-10.63L32.09,72.21L32.09,72.21z M46.84,80.83l1.62,11.08 c4.71,3.13,9.32,5.81,13.35,7.21l-9.7-15.24C50.42,82.97,48.65,81.94,46.84,80.83L46.84,80.83z M59.08,87.03l8.36,13.14 c0.22-0.01,0.43-0.02,0.64-0.04c3.91-0.42,7.43-2.29,10.24-4.97c0.27-0.26,0.54-0.53,0.8-0.8L66.4,87.13 c-0.51,0.21-1.05,0.38-1.6,0.49c-1.18,0.24-2.45,0.23-3.76-0.05C60.4,87.43,59.75,87.25,59.08,87.03L59.08,87.03z M69.96,84.33 L81.71,91c1.33-2.09,2.31-4.4,2.88-6.78l0.04-0.14c0.28-1.23,0.42-2.42,0.42-3.57L71.36,81.3C71.09,82.42,70.6,83.44,69.96,84.33 L69.96,84.33z M71.44,77.08l13.09-0.76c-0.78-3.05-2.37-5.9-4.28-8.7l-12.57,2.16c1.82,2.37,3.25,4.73,3.75,7.23L71.44,77.08 L71.44,77.08z M64.58,66.06l12.94-2.23l-0.68-0.91c-0.94-1.25-1.88-2.51-2.81-3.82c-1.4-1.97-2.6-3.62-3.78-5.24l-14.71,1.89 c1.45,1.71,2.94,3.38,4.4,5.03l0.02,0.03c1.14,1.29,2.27,2.56,3.21,3.63l0.89,1.03L64.58,66.06L64.58,66.06z M52.42,51.92 l15.01-1.93c-1.64-2.27-3.25-4.53-4.78-6.77l-0.02-0.01l-17.16-7.93c0.05,0.52,0.12,1.05,0.2,1.58C46.5,42,48.9,47.32,52.42,51.92 L52.42,51.92z M45.49,30.65l15.54,7.19c0.16-1.21,0.66-2.34,1.39-3.26c0.69-0.87,1.38-1.5,2.06-1.92L60.24,16 c-3.71,0.79-6.65,2.14-8.89,3.89c-2.58,2.01-4.26,4.56-5.16,7.42C45.85,28.38,45.62,29.5,45.49,30.65L45.49,30.65z M64.45,15.47 l4.24,16.67c1.53,0.46,3.03,1.46,4.48,2.43c0.66,0.44,1.32,0.88,1.86,1.17c1.42,0.75,2.86,1.32,4.29,1.75 c1.1,0.33,2.19,0.57,3.26,0.74l-2.3-15.8c-1.7-0.66-3.2-1.73-4.74-2.83c-0.79-0.56-1.59-1.13-2.4-1.62c-1-0.6-1.98-1.1-2.98-1.49 c-0.98-0.38-2.01-0.67-3.11-0.83c-0.81-0.12-1.64-0.19-2.49-0.19L64.45,15.47L64.45,15.47z"/></g></svg>